<?xml version="1.0" encoding="utf-8"?>
<!-- Generator: Adobe Illustrator 25.2.3, SVG Export Plug-In . SVG Version: 6.00 Build 0)  -->
<svg version="1.1" id="Layer_1" xmlns="http://www.w3.org/2000/svg" xmlns:xlink="http://www.w3.org/1999/xlink" x="0px" y="0px"
	 viewBox="0 0 133.3 133.3" style="enable-background:new 0 0 133.3 133.3;" xml:space="preserve">
<style type="text/css">
	.st0{fill:#EBEBE9;}
	.st1{fill:none;}
	.st2{fill:#9F847B;}
	.st3{fill:#9D6B4D;}
	.st4{fill:#A39869;}
	.st5{fill:#495F55;}
</style>
<circle class="st0" cx="66.65" cy="66.65" r="66.65"/>
<g>
	<g>
		<g>
			<circle class="st1" cx="66.65" cy="66.65" r="51.65"/>
			<path class="st2" d="M21.18,52.69l-7.81-1.71l5.36,5.04l-0.04,0.19l-6.97,2.34l7.81,1.71l-0.05,0.24l-8.32-1.82l0.04-0.19
				l7.24-2.43l-5.56-5.23l0.04-0.19l8.32,1.82L21.18,52.69z"/>
			<path class="st2" d="M20.07,47.93l-3.17-1.46l0.1-0.22l3.17,1.46c0.8,0.37,1.46,0.51,1.97,0.43s0.9-0.39,1.14-0.93
				c0.17-0.36,0.25-0.75,0.23-1.16c-0.01-0.41-0.11-0.81-0.29-1.2s-0.43-0.72-0.76-1l-3.59-1.66l0.1-0.22l5.22,2.41
				c0.06,0.03,0.12,0.04,0.18,0.02c0.06-0.01,0.09-0.05,0.12-0.1l0.22,0.1c-0.02,0.04-0.04,0.08-0.05,0.1
				c-0.01,0.02-0.03,0.04-0.04,0.05c-0.06,0.06-0.14,0.09-0.24,0.1c-0.1,0.01-0.19-0.01-0.29-0.05l-1-0.46
				c0.36,0.46,0.57,0.98,0.65,1.56c0.07,0.57-0.01,1.11-0.24,1.62c-0.28,0.6-0.7,0.95-1.28,1.05
				C21.64,48.47,20.93,48.32,20.07,47.93z"/>
			<path class="st2" d="M19.27,36.5l0.13-0.2l6.63,4.28c0.2,0.13,0.39,0.17,0.58,0.12c0.19-0.05,0.36-0.17,0.49-0.37
				c0.05-0.07,0.1-0.17,0.15-0.28c0.05-0.12,0.09-0.23,0.12-0.33l0.21,0.03c-0.03,0.1-0.08,0.24-0.14,0.39
				c-0.06,0.16-0.13,0.28-0.19,0.38c-0.15,0.24-0.35,0.38-0.6,0.43c-0.25,0.05-0.5-0.01-0.75-0.17L19.27,36.5z"/>
			<path class="st2" d="M30.72,35.36c-0.03,0.23-0.08,0.43-0.14,0.59s-0.16,0.34-0.31,0.51c-0.12,0.15-0.26,0.26-0.43,0.34
				s-0.34,0.11-0.51,0.09c-0.18-0.01-0.34-0.08-0.49-0.21l-3.99-3.24l-0.57,0.7L24.09,34l0.57-0.7l-1.69-1.37l0.15-0.19l1.69,1.37
				l0.95-1.16l0.19,0.15L25,33.27l3.99,3.24c0.19,0.13,0.39,0.18,0.59,0.13c0.2-0.05,0.37-0.16,0.5-0.32
				c0.18-0.22,0.29-0.43,0.33-0.64c0.05-0.21,0.07-0.32,0.07-0.33L30.72,35.36z"/>
			<path class="st2" d="M27.46,27.74l-0.65-0.65l0.17-0.17l0.65,0.65L27.46,27.74z M33.01,33.28l-4.41-4.4l0.17-0.17l4.41,4.4
				L33.01,33.28z"/>
			<path class="st2" d="M43.08,25.28l-0.2,0.14l-2-2.83c-0.51-0.73-1-1.19-1.47-1.38s-0.94-0.13-1.4,0.2
				c-0.48,0.34-0.79,0.8-0.91,1.38c-0.12,0.58-0.07,1.18,0.15,1.79l2.26,3.21l-0.2,0.14l-2-2.83c-0.52-0.74-1.01-1.2-1.47-1.39
				c-0.46-0.19-0.92-0.12-1.39,0.21c-0.48,0.34-0.78,0.79-0.91,1.37c-0.13,0.57-0.08,1.18,0.13,1.81l2.27,3.22l-0.2,0.14l-3.59-5.09
				l0.2-0.14l0.93,1.31c-0.09-0.6-0.05-1.14,0.13-1.63c0.18-0.49,0.46-0.87,0.86-1.15c0.42-0.3,0.87-0.41,1.34-0.34
				c0.47,0.07,0.89,0.31,1.25,0.73c-0.1-0.68-0.06-1.26,0.1-1.74s0.46-0.88,0.89-1.18c0.27-0.19,0.53-0.3,0.79-0.35
				c0.26-0.04,0.52-0.01,0.79,0.09c0.27,0.1,0.54,0.28,0.8,0.53c0.27,0.25,0.54,0.57,0.82,0.96L43.08,25.28z"/>
			<path class="st2" d="M48.59,22.95c-0.38,0.16-0.77,0.23-1.17,0.21c-0.4-0.02-0.79-0.11-1.16-0.29s-0.7-0.41-1-0.71
				c-0.3-0.31-0.53-0.67-0.7-1.08c-0.22-0.54-0.31-1.08-0.25-1.62c0.06-0.54,0.24-1.03,0.54-1.47s0.7-0.75,1.21-0.96
				c0.51-0.21,1.03-0.27,1.56-0.18c0.53,0.09,1.01,0.31,1.45,0.65c0.44,0.34,0.77,0.79,1,1.34c0.01,0.02,0.02,0.04,0.03,0.06
				c0.01,0.02,0.02,0.04,0.03,0.06l-5.26,2.19c0.24,0.48,0.57,0.87,0.97,1.17s0.84,0.49,1.31,0.56s0.93,0.02,1.38-0.16
				s0.81-0.47,1.1-0.85c0.29-0.38,0.44-0.79,0.46-1.21l0.23-0.03c0,0.3-0.07,0.61-0.21,0.91c-0.14,0.31-0.35,0.58-0.61,0.83
				C49.22,22.62,48.92,22.81,48.59,22.95z M44.76,20.93l5.03-2.09c-0.25-0.5-0.56-0.91-0.96-1.21c-0.39-0.3-0.82-0.49-1.29-0.56
				c-0.46-0.08-0.93-0.02-1.38,0.17c-0.45,0.19-0.81,0.47-1.09,0.85c-0.27,0.38-0.44,0.82-0.5,1.31
				C44.51,19.9,44.58,20.41,44.76,20.93z"/>
			<path class="st2" d="M53.08,17.91c-0.12-0.56-0.11-1.11,0.04-1.64c0.15-0.53,0.4-0.99,0.76-1.37c0.36-0.38,0.82-0.63,1.36-0.75
				c0.56-0.12,1.08-0.07,1.58,0.14c0.5,0.21,0.91,0.49,1.24,0.85l-0.83-3.9l0.24-0.05l1.72,8.1c0.02,0.07,0.04,0.12,0.09,0.16
				c0.04,0.04,0.09,0.05,0.15,0.04l0.05,0.24c-0.07,0.01-0.12,0.02-0.16,0.01c-0.09-0.02-0.17-0.07-0.24-0.14s-0.11-0.16-0.13-0.25
				l-0.17-0.8c-0.17,0.46-0.45,0.87-0.83,1.22c-0.38,0.35-0.8,0.58-1.26,0.67c-0.42,0.09-0.83,0.08-1.23-0.02
				c-0.4-0.1-0.76-0.28-1.09-0.52c-0.33-0.25-0.6-0.54-0.83-0.88C53.32,18.67,53.17,18.3,53.08,17.91z M58.62,17.82l-0.47-2.2
				c-0.19-0.3-0.44-0.56-0.76-0.77c-0.32-0.21-0.67-0.36-1.05-0.45c-0.38-0.09-0.73-0.1-1.05-0.03c-0.4,0.08-0.74,0.24-1.02,0.48
				c-0.28,0.23-0.51,0.51-0.67,0.84s-0.27,0.68-0.32,1.05s-0.03,0.74,0.04,1.11c0.08,0.38,0.23,0.74,0.44,1.05
				c0.21,0.32,0.47,0.59,0.78,0.81s0.64,0.38,1,0.46c0.36,0.09,0.72,0.09,1.1,0.01c0.23-0.05,0.48-0.15,0.73-0.31
				s0.48-0.35,0.68-0.58s0.36-0.47,0.47-0.73C58.63,18.33,58.66,18.08,58.62,17.82z"/>
			<path class="st2" d="M62.55,11.58l-0.07-0.92l0.24-0.02l0.07,0.92L62.55,11.58z M63.1,19.39l-0.44-6.21l0.24-0.02l0.44,6.21
				L63.1,19.39z"/>
			<path class="st2" d="M69.73,19.48c-0.41-0.02-0.79-0.13-1.14-0.33c-0.35-0.19-0.66-0.45-0.92-0.77
				c-0.26-0.32-0.45-0.68-0.58-1.08c-0.13-0.4-0.18-0.83-0.15-1.28c0.04-0.58,0.2-1.11,0.49-1.57c0.29-0.46,0.67-0.82,1.13-1.08
				s0.96-0.37,1.51-0.33c0.55,0.03,1.04,0.21,1.48,0.52c0.43,0.32,0.77,0.72,1.01,1.22s0.34,1.05,0.31,1.65c0,0.02,0,0.05,0,0.07
				c0,0.02,0,0.04,0,0.07l-5.69-0.35c0.01,0.54,0.12,1.03,0.35,1.48s0.54,0.81,0.93,1.09c0.39,0.28,0.83,0.43,1.31,0.46
				c0.48,0.03,0.93-0.06,1.36-0.28s0.75-0.51,0.94-0.88l0.22,0.07c-0.13,0.27-0.33,0.51-0.59,0.73s-0.57,0.37-0.91,0.48
				C70.44,19.46,70.09,19.5,69.73,19.48z M67.18,15.98l5.44,0.34c0-0.56-0.11-1.06-0.33-1.5c-0.22-0.44-0.52-0.8-0.91-1.07
				c-0.38-0.27-0.82-0.42-1.32-0.45c-0.49-0.03-0.94,0.07-1.35,0.29c-0.42,0.22-0.76,0.54-1.03,0.96S67.25,15.43,67.18,15.98z"/>
			<path class="st2" d="M76,16.93c0.14-0.56,0.39-1.04,0.76-1.46s0.79-0.71,1.29-0.9c0.5-0.18,1.01-0.21,1.55-0.08
				c0.55,0.14,1,0.41,1.35,0.82s0.6,0.84,0.74,1.3l0.97-3.86l0.23,0.06l-2.02,8.03c-0.02,0.07-0.01,0.13,0.01,0.18
				c0.02,0.05,0.06,0.08,0.12,0.1l-0.06,0.23c-0.07-0.02-0.12-0.04-0.15-0.06c-0.08-0.06-0.13-0.14-0.15-0.23
				c-0.03-0.09-0.03-0.19,0-0.28l0.2-0.79c-0.36,0.34-0.78,0.58-1.28,0.73c-0.5,0.15-0.97,0.17-1.43,0.05
				c-0.42-0.11-0.79-0.29-1.1-0.56c-0.31-0.27-0.56-0.58-0.75-0.95c-0.18-0.36-0.3-0.75-0.35-1.15C75.88,17.72,75.91,17.32,76,16.93
				z M81.02,19.29l0.55-2.18c-0.03-0.35-0.15-0.7-0.35-1.03c-0.2-0.33-0.45-0.62-0.74-0.86c-0.3-0.24-0.61-0.41-0.93-0.49
				c-0.4-0.1-0.77-0.11-1.13-0.02c-0.35,0.08-0.68,0.24-0.98,0.46c-0.29,0.22-0.54,0.49-0.75,0.8c-0.21,0.31-0.36,0.65-0.45,1.01
				c-0.1,0.38-0.12,0.76-0.07,1.14c0.05,0.38,0.16,0.74,0.34,1.07c0.18,0.33,0.41,0.62,0.7,0.85c0.28,0.24,0.61,0.4,0.98,0.5
				c0.23,0.06,0.5,0.07,0.79,0.04c0.29-0.03,0.58-0.1,0.86-0.22c0.28-0.11,0.53-0.26,0.74-0.44C80.79,19.75,80.94,19.54,81.02,19.29
				z"/>
			<path class="st2" d="M86.45,23.71c-0.37-0.17-0.69-0.41-0.94-0.72c-0.26-0.31-0.45-0.66-0.58-1.04s-0.18-0.79-0.15-1.22
				c0.02-0.42,0.13-0.84,0.32-1.25c0.24-0.53,0.59-0.96,1.03-1.28c0.44-0.33,0.92-0.53,1.44-0.6c0.52-0.07,1.03,0,1.52,0.23
				c0.5,0.23,0.9,0.57,1.19,1.02c0.29,0.45,0.46,0.95,0.5,1.5c0.04,0.55-0.06,1.1-0.31,1.65c-0.01,0.02-0.02,0.04-0.03,0.06
				c-0.01,0.02-0.02,0.04-0.03,0.06l-5.18-2.38c-0.19,0.5-0.25,1-0.2,1.5c0.05,0.5,0.21,0.95,0.48,1.35s0.62,0.7,1.05,0.9
				c0.44,0.2,0.89,0.28,1.38,0.23c0.48-0.05,0.88-0.21,1.2-0.49l0.18,0.15c-0.22,0.21-0.49,0.36-0.81,0.46
				c-0.32,0.1-0.67,0.14-1.02,0.12C87.12,23.95,86.78,23.86,86.45,23.71z M85.33,19.53l4.95,2.28c0.21-0.52,0.28-1.03,0.24-1.52
				s-0.2-0.93-0.46-1.33s-0.62-0.69-1.07-0.9c-0.44-0.2-0.9-0.28-1.37-0.22s-0.9,0.23-1.3,0.52C85.92,18.65,85.59,19.04,85.33,19.53
				z"/>
			<path class="st2" d="M93.26,27.58c-0.39-0.27-0.7-0.58-0.94-0.94c-0.24-0.36-0.39-0.77-0.45-1.23l0.24-0.03
				c0.09,0.44,0.23,0.82,0.44,1.14s0.49,0.61,0.85,0.86c0.51,0.35,1,0.52,1.47,0.51c0.47,0,0.83-0.2,1.1-0.59
				c0.17-0.25,0.24-0.5,0.19-0.73c-0.04-0.24-0.17-0.49-0.37-0.76c-0.21-0.27-0.47-0.58-0.8-0.93c-0.29-0.33-0.53-0.61-0.7-0.85
				c-0.18-0.24-0.28-0.48-0.29-0.7c-0.02-0.22,0.07-0.47,0.25-0.74c0.23-0.34,0.51-0.56,0.82-0.66c0.31-0.1,0.64-0.1,0.99-0.02
				c0.34,0.08,0.68,0.24,1,0.46c0.42,0.28,0.72,0.6,0.92,0.94c0.2,0.34,0.28,0.66,0.25,0.95l-0.23-0.04
				c0.01-0.29-0.08-0.58-0.3-0.88s-0.48-0.56-0.81-0.79c-0.28-0.19-0.57-0.33-0.87-0.41c-0.3-0.08-0.58-0.08-0.85,0
				c-0.27,0.08-0.5,0.26-0.7,0.55c-0.15,0.22-0.22,0.43-0.21,0.63c0.01,0.19,0.1,0.4,0.25,0.61c0.15,0.21,0.36,0.47,0.63,0.76
				c0.35,0.37,0.63,0.71,0.86,1.01c0.23,0.3,0.37,0.59,0.42,0.86c0.05,0.27-0.03,0.55-0.23,0.85c-0.31,0.45-0.73,0.69-1.26,0.72
				S93.83,27.97,93.26,27.58z"/>
			<path class="st2" d="M97.85,30.98l4.11-4.68l0.18,0.16l-4.12,4.67L97.85,30.98z M103.03,25.1l0.61-0.69l0.18,0.16l-0.61,0.69
				L103.03,25.1z"/>
			<path class="st2" d="M102.42,35.75c-0.28-0.33-0.47-0.69-0.57-1.09c-0.1-0.4-0.12-0.8-0.06-1.21s0.18-0.79,0.37-1.15
				c0.19-0.36,0.44-0.67,0.74-0.93c0.32-0.27,0.67-0.48,1.05-0.63c0.38-0.15,0.78-0.22,1.17-0.23c0.4,0,0.78,0.07,1.14,0.22
				c0.37,0.15,0.69,0.39,0.96,0.71c0.37,0.43,0.58,0.9,0.62,1.42c0.04,0.51,0,1.02-0.13,1.52l1.1-0.95l0.16,0.18l-4.92,4.24
				c-0.41,0.36-0.84,0.55-1.28,0.59c-0.44,0.04-0.87-0.05-1.27-0.25c-0.4-0.21-0.76-0.49-1.07-0.84c-0.48-0.56-0.75-1.08-0.82-1.58
				c-0.06-0.5,0-0.97,0.18-1.44l0.2,0.13c-0.18,0.5-0.21,0.98-0.08,1.45c0.13,0.47,0.36,0.9,0.69,1.28c0.3,0.34,0.63,0.61,1,0.79
				c0.37,0.18,0.76,0.25,1.15,0.21c0.39-0.04,0.77-0.21,1.13-0.52l1.18-1.02c-0.49,0.07-0.98,0.03-1.47-0.14
				C103.13,36.37,102.73,36.11,102.42,35.75z M102.6,35.59c0.19,0.22,0.42,0.41,0.69,0.54s0.55,0.23,0.84,0.29
				c0.29,0.05,0.57,0.06,0.84,0.02s0.49-0.12,0.67-0.26l1.7-1.46c0.18-0.33,0.29-0.68,0.32-1.06c0.03-0.38,0-0.75-0.11-1.11
				c-0.1-0.36-0.27-0.67-0.5-0.94c-0.27-0.31-0.58-0.54-0.93-0.68c-0.35-0.14-0.71-0.19-1.08-0.17c-0.37,0.02-0.72,0.1-1.07,0.24
				c-0.34,0.14-0.65,0.32-0.92,0.55c-0.3,0.26-0.54,0.55-0.71,0.89c-0.18,0.34-0.29,0.7-0.33,1.07c-0.04,0.38-0.02,0.74,0.08,1.1
				C102.18,34.98,102.35,35.3,102.6,35.59z"/>
			<path class="st2" d="M108.8,44.84l-0.12-0.21l2.99-1.75c0.78-0.46,1.29-0.9,1.52-1.33c0.24-0.43,0.21-0.89-0.07-1.37
				c-0.2-0.35-0.48-0.63-0.83-0.87s-0.74-0.39-1.16-0.47s-0.84-0.07-1.25,0.04l-3.4,1.99l-0.12-0.21l5.37-3.15l0.12,0.21l-1.39,0.81
				c0.38-0.02,0.75,0.03,1.12,0.15c0.37,0.12,0.7,0.3,1.01,0.53c0.3,0.23,0.55,0.51,0.74,0.83c0.16,0.28,0.25,0.54,0.27,0.8
				s-0.04,0.51-0.16,0.76c-0.12,0.25-0.32,0.5-0.6,0.74c-0.27,0.24-0.62,0.49-1.04,0.74L108.8,44.84z"/>
			<path class="st2" d="M111.1,50.52c-0.14-0.38-0.19-0.78-0.16-1.18c0.04-0.4,0.15-0.78,0.34-1.14c0.19-0.36,0.44-0.68,0.76-0.97
				s0.69-0.5,1.11-0.65c0.55-0.2,1.09-0.26,1.63-0.18c0.54,0.08,1.02,0.29,1.44,0.6s0.72,0.74,0.91,1.25
				c0.19,0.52,0.23,1.04,0.11,1.56s-0.35,1-0.71,1.42c-0.36,0.42-0.82,0.74-1.39,0.94c-0.02,0.01-0.04,0.02-0.06,0.02
				c-0.02,0.01-0.04,0.01-0.06,0.02l-1.96-5.35c-0.49,0.22-0.89,0.53-1.21,0.92s-0.53,0.82-0.62,1.29s-0.06,0.93,0.1,1.38
				c0.16,0.45,0.43,0.83,0.8,1.14s0.77,0.48,1.19,0.51l0.02,0.24c-0.3-0.01-0.6-0.09-0.9-0.25c-0.3-0.16-0.57-0.37-0.8-0.65
				C111.4,51.16,111.22,50.86,111.1,50.52z M113.28,46.78l1.87,5.12c0.51-0.22,0.93-0.52,1.25-0.9c0.32-0.38,0.52-0.8,0.62-1.26
				s0.06-0.92-0.11-1.39c-0.17-0.46-0.44-0.83-0.81-1.12c-0.37-0.29-0.8-0.48-1.29-0.56C114.32,46.59,113.81,46.62,113.28,46.78z"/>
			<path class="st2" d="M119.32,57.8c-0.14-0.57-0.43-1.03-0.87-1.38c-0.44-0.35-0.98-0.55-1.62-0.59l-3.86,0.77l-0.05-0.24
				l6.11-1.22l0.05,0.24l-1.58,0.32c0.47,0.12,0.89,0.34,1.24,0.64c0.35,0.3,0.59,0.65,0.72,1.04c0.02,0.08,0.04,0.15,0.06,0.21
				c0.02,0.07,0.03,0.12,0.04,0.17L119.32,57.8z"/>
		</g>
		<g>
			<circle class="st1" cx="66.65" cy="66.65" r="51.65"/>
			<path class="st2" d="M27.82,104.19l-0.37,0.33l-1.83-2l0.37-0.33l0.77,0.84l2.53-2.31c-0.08,0.01-0.18,0.01-0.3-0.02
				c-0.12-0.02-0.25-0.06-0.39-0.12c-0.13-0.05-0.26-0.11-0.38-0.18c-0.12-0.07-0.21-0.14-0.28-0.22l0.39-0.36
				c0.08,0.09,0.2,0.17,0.35,0.22c0.15,0.06,0.3,0.11,0.46,0.15c0.16,0.04,0.29,0.06,0.42,0.08c0.12,0.01,0.19,0.01,0.22,0
				l0.38,0.41l-3.01,2.75L27.82,104.19z"/>
			<path class="st2" d="M29.63,106.63l0.53-0.58l0.35,0.32l-0.53,0.58L29.63,106.63z"/>
			<path class="st2" d="M37.2,112.59c-0.29-0.18-0.52-0.4-0.71-0.66c-0.19-0.25-0.31-0.53-0.36-0.84l0.4-0.2
				c0.08,0.31,0.19,0.57,0.34,0.78c0.15,0.21,0.33,0.39,0.56,0.53c0.27,0.18,0.53,0.26,0.77,0.26c0.24,0,0.43-0.1,0.56-0.31
				c0.09-0.14,0.12-0.27,0.08-0.4c-0.04-0.13-0.12-0.26-0.24-0.41c-0.12-0.15-0.28-0.32-0.46-0.51c-0.2-0.22-0.36-0.42-0.47-0.6
				c-0.12-0.18-0.18-0.35-0.19-0.52s0.04-0.34,0.16-0.53c0.15-0.23,0.33-0.38,0.54-0.46c0.21-0.08,0.44-0.09,0.69-0.04
				c0.25,0.05,0.5,0.16,0.74,0.31c0.27,0.17,0.48,0.37,0.63,0.59s0.24,0.45,0.28,0.68l-0.42,0.17c-0.03-0.22-0.11-0.43-0.24-0.61
				s-0.3-0.34-0.51-0.47c-0.14-0.09-0.29-0.16-0.45-0.21s-0.3-0.05-0.44-0.02c-0.14,0.03-0.26,0.13-0.35,0.28
				c-0.08,0.12-0.11,0.24-0.09,0.35c0.02,0.11,0.08,0.23,0.17,0.36s0.22,0.28,0.37,0.45c0.22,0.24,0.4,0.46,0.55,0.66
				c0.15,0.2,0.24,0.39,0.27,0.58c0.03,0.19-0.02,0.38-0.15,0.59c-0.21,0.33-0.5,0.5-0.86,0.52S37.6,112.85,37.2,112.59z"/>
			<path class="st2" d="M43.07,115.87c-0.27-0.13-0.49-0.3-0.67-0.51c-0.18-0.21-0.31-0.45-0.4-0.71c-0.08-0.26-0.11-0.53-0.09-0.81
				c0.02-0.28,0.09-0.55,0.22-0.82c0.17-0.35,0.4-0.63,0.7-0.84c0.3-0.21,0.63-0.34,1-0.38c0.37-0.04,0.73,0.03,1.09,0.2
				c0.37,0.18,0.65,0.42,0.84,0.73s0.3,0.65,0.32,1.01s-0.05,0.72-0.22,1.06c-0.02,0.04-0.04,0.08-0.05,0.11
				c-0.02,0.04-0.03,0.06-0.05,0.08l-3.22-1.55c-0.1,0.28-0.14,0.55-0.12,0.82c0.03,0.27,0.11,0.51,0.26,0.73s0.34,0.39,0.58,0.5
				c0.25,0.12,0.51,0.17,0.79,0.15c0.28-0.02,0.51-0.11,0.69-0.27l0.37,0.32c-0.16,0.14-0.36,0.25-0.59,0.31
				c-0.23,0.07-0.47,0.09-0.72,0.07S43.32,115.99,43.07,115.87z M42.71,113.09l2.78,1.33c0.11-0.28,0.15-0.55,0.12-0.82
				s-0.12-0.51-0.27-0.72s-0.34-0.38-0.59-0.5c-0.25-0.12-0.5-0.17-0.75-0.15c-0.26,0.02-0.5,0.1-0.73,0.25
				C43.04,112.63,42.86,112.83,42.71,113.09z"/>
			<path class="st2" d="M54.04,119.76l-0.52-0.16l0.66-2.22c0.14-0.46,0.17-0.82,0.08-1.09c-0.08-0.26-0.27-0.44-0.56-0.52
				c-0.3-0.09-0.6-0.06-0.9,0.08c-0.3,0.14-0.55,0.37-0.75,0.67l-0.72,2.42l-0.52-0.16l0.66-2.22c0.14-0.47,0.17-0.83,0.09-1.09
				s-0.27-0.43-0.56-0.52c-0.3-0.09-0.6-0.06-0.9,0.07c-0.3,0.14-0.55,0.36-0.75,0.67l-0.72,2.43l-0.52-0.16l1.19-3.98l0.48,0.14
				l-0.27,0.91c0.26-0.26,0.55-0.43,0.86-0.52c0.31-0.09,0.63-0.09,0.95,0.01c0.33,0.1,0.57,0.27,0.72,0.52s0.2,0.53,0.16,0.85
				c0.28-0.28,0.58-0.47,0.89-0.56c0.31-0.1,0.63-0.09,0.96,0c0.22,0.07,0.4,0.17,0.53,0.29c0.13,0.13,0.22,0.28,0.27,0.46
				c0.05,0.18,0.06,0.38,0.04,0.6s-0.07,0.46-0.14,0.72L54.04,119.76z"/>
			<path class="st2" d="M59.41,120.74c-0.3-0.04-0.56-0.13-0.8-0.28c-0.24-0.15-0.44-0.33-0.6-0.55c-0.16-0.22-0.27-0.47-0.34-0.74
				c-0.07-0.27-0.08-0.56-0.04-0.85c0.05-0.38,0.19-0.72,0.41-1.02c0.22-0.3,0.5-0.52,0.84-0.67c0.34-0.15,0.7-0.2,1.1-0.15
				c0.41,0.05,0.75,0.2,1.03,0.43c0.28,0.24,0.48,0.52,0.61,0.86c0.13,0.34,0.17,0.7,0.12,1.08c-0.01,0.04-0.01,0.08-0.02,0.12
				s-0.01,0.07-0.02,0.09l-3.54-0.47c-0.01,0.3,0.04,0.57,0.14,0.82c0.11,0.25,0.27,0.45,0.47,0.62s0.44,0.26,0.71,0.3
				c0.27,0.04,0.53,0,0.79-0.1c0.26-0.11,0.45-0.26,0.58-0.47l0.45,0.19c-0.11,0.18-0.26,0.34-0.46,0.48
				c-0.2,0.13-0.42,0.23-0.66,0.29C59.94,120.77,59.68,120.78,59.41,120.74z M58.2,118.21l3.05,0.41c0.02-0.3-0.03-0.57-0.14-0.82
				c-0.11-0.24-0.27-0.44-0.48-0.6c-0.21-0.16-0.45-0.26-0.72-0.29c-0.27-0.04-0.52,0-0.76,0.09c-0.24,0.1-0.44,0.25-0.61,0.46
				C58.38,117.67,58.26,117.92,58.2,118.21z"/>
			<path class="st2" d="M66.1,121.21c-0.34-0.01-0.66-0.07-0.95-0.18c-0.29-0.12-0.54-0.29-0.75-0.52l0.23-0.38
				c0.23,0.22,0.46,0.39,0.7,0.49c0.24,0.1,0.49,0.16,0.75,0.16c0.33,0,0.59-0.06,0.8-0.18c0.2-0.13,0.31-0.31,0.31-0.55
				c0-0.17-0.04-0.29-0.14-0.38c-0.1-0.09-0.24-0.16-0.42-0.22c-0.18-0.06-0.4-0.12-0.66-0.19c-0.29-0.08-0.53-0.17-0.72-0.26
				c-0.19-0.09-0.34-0.2-0.43-0.34c-0.1-0.14-0.14-0.31-0.14-0.53c0-0.27,0.08-0.49,0.21-0.67c0.14-0.18,0.33-0.31,0.57-0.4
				c0.24-0.09,0.5-0.13,0.8-0.13c0.32,0,0.6,0.06,0.85,0.17c0.24,0.11,0.44,0.25,0.59,0.43l-0.27,0.36
				c-0.15-0.17-0.32-0.3-0.53-0.39s-0.43-0.13-0.68-0.13c-0.17,0-0.33,0.02-0.49,0.06c-0.16,0.04-0.28,0.11-0.38,0.22
				c-0.1,0.1-0.15,0.24-0.15,0.42c0,0.15,0.03,0.26,0.11,0.35c0.07,0.08,0.18,0.15,0.33,0.21c0.15,0.06,0.33,0.12,0.55,0.19
				c0.31,0.09,0.59,0.18,0.82,0.27c0.23,0.09,0.41,0.21,0.54,0.35c0.13,0.14,0.19,0.33,0.18,0.58c-0.01,0.39-0.16,0.69-0.45,0.9
				C66.96,121.12,66.58,121.22,66.1,121.21z"/>
			<path class="st2" d="M72.94,120.62c-0.04,0.02-0.1,0.05-0.19,0.11c-0.09,0.05-0.19,0.1-0.32,0.14c-0.12,0.04-0.26,0.07-0.41,0.09
				c-0.15,0.01-0.3,0-0.44-0.05s-0.26-0.13-0.35-0.24c-0.09-0.11-0.14-0.26-0.16-0.43l-0.27-2.98l-0.57,0.05l-0.04-0.43l0.57-0.05
				l-0.13-1.4l0.54-0.05l0.13,1.4l0.96-0.09l0.04,0.43l-0.96,0.09l0.26,2.83c0.02,0.15,0.09,0.26,0.19,0.32s0.22,0.09,0.35,0.08
				c0.15-0.01,0.28-0.05,0.4-0.11s0.19-0.1,0.21-0.13L72.94,120.62z"/>
			<path class="st2" d="M77.72,120.1c-0.29,0.06-0.58,0.06-0.85,0s-0.52-0.17-0.75-0.33c-0.22-0.16-0.41-0.35-0.57-0.59
				s-0.26-0.5-0.32-0.79c-0.08-0.38-0.06-0.74,0.05-1.1c0.11-0.35,0.3-0.65,0.57-0.91c0.27-0.25,0.6-0.42,0.99-0.5
				c0.4-0.08,0.77-0.06,1.11,0.07c0.34,0.13,0.63,0.33,0.87,0.61c0.24,0.28,0.39,0.6,0.47,0.98c0.01,0.04,0.02,0.08,0.02,0.12
				c0.01,0.04,0.01,0.07,0.01,0.09l-3.5,0.72c0.09,0.29,0.22,0.53,0.41,0.73c0.18,0.2,0.4,0.34,0.65,0.43
				c0.25,0.09,0.5,0.1,0.77,0.05c0.27-0.05,0.5-0.17,0.71-0.36s0.34-0.4,0.39-0.63l0.49,0.03c-0.04,0.21-0.14,0.41-0.28,0.6
				c-0.14,0.19-0.32,0.36-0.53,0.49S77.98,120.04,77.72,120.1z M75.74,118.1l3.02-0.62c-0.08-0.29-0.21-0.53-0.4-0.73
				c-0.18-0.19-0.4-0.33-0.65-0.41s-0.51-0.09-0.77-0.04c-0.27,0.05-0.5,0.17-0.69,0.34s-0.34,0.38-0.43,0.64
				C75.73,117.53,75.7,117.81,75.74,118.1z"/>
			<path class="st2" d="M83.67,114.54c-0.34,0.12-0.61,0.32-0.81,0.59c-0.2,0.27-0.3,0.58-0.3,0.93l0.81,2.46l-0.52,0.17l-1.29-3.95
				l0.49-0.16l0.31,0.94c0.05-0.32,0.15-0.61,0.32-0.85s0.38-0.42,0.62-0.52c0.05-0.02,0.09-0.04,0.13-0.05
				c0.04-0.01,0.07-0.02,0.1-0.02L83.67,114.54z"/>
			<path class="st2" d="M91.27,115.3c-0.09-0.16-0.16-0.33-0.22-0.51c-0.06-0.18-0.1-0.37-0.1-0.58c-0.01-0.2,0.02-0.42,0.1-0.66
				c0.07-0.23,0.2-0.49,0.38-0.76c0.1-0.14,0.2-0.29,0.31-0.44c0.11-0.15,0.2-0.3,0.29-0.45s0.13-0.3,0.15-0.45s-0.01-0.3-0.09-0.44
				c-0.07-0.12-0.16-0.22-0.29-0.29c-0.13-0.08-0.29-0.11-0.46-0.11s-0.37,0.06-0.57,0.17c-0.15,0.08-0.27,0.18-0.37,0.29
				c-0.1,0.11-0.18,0.22-0.24,0.33c-0.06,0.11-0.1,0.22-0.14,0.32c-0.03,0.1-0.06,0.18-0.07,0.25l-0.48-0.17
				c0.01-0.04,0.03-0.12,0.08-0.24s0.11-0.25,0.19-0.4c0.08-0.15,0.2-0.3,0.34-0.45c0.14-0.15,0.32-0.29,0.53-0.4
				c0.29-0.16,0.56-0.24,0.82-0.25c0.26-0.01,0.49,0.04,0.69,0.15s0.36,0.27,0.46,0.47c0.11,0.19,0.16,0.38,0.15,0.57
				c-0.01,0.19-0.04,0.36-0.12,0.54c-0.07,0.17-0.16,0.33-0.26,0.48s-0.19,0.28-0.27,0.39c-0.16,0.22-0.29,0.43-0.38,0.62
				s-0.15,0.36-0.18,0.51s-0.04,0.3-0.04,0.43s0.03,0.25,0.07,0.37l2.51-1.38l0.24,0.44L91.27,115.3z"/>
			<path class="st2" d="M98.93,107.7c0.27,0.37,0.44,0.76,0.51,1.15c0.07,0.39,0.04,0.76-0.08,1.11c-0.12,0.34-0.34,0.63-0.65,0.86
				s-0.65,0.34-1.01,0.36c-0.36,0.01-0.72-0.08-1.08-0.26c-0.35-0.19-0.67-0.47-0.94-0.84c-0.27-0.37-0.44-0.76-0.51-1.15
				s-0.04-0.76,0.08-1.11s0.34-0.63,0.65-0.86s0.65-0.34,1.02-0.36c0.37-0.01,0.73,0.08,1.08,0.27S98.65,107.33,98.93,107.7z
				 M98.48,108.03c-0.22-0.3-0.46-0.53-0.73-0.69c-0.26-0.16-0.53-0.24-0.8-0.24c-0.27,0-0.52,0.08-0.76,0.25
				c-0.23,0.17-0.39,0.38-0.47,0.64s-0.09,0.54-0.03,0.84c0.06,0.3,0.21,0.6,0.42,0.9s0.46,0.53,0.73,0.68
				c0.27,0.16,0.54,0.23,0.8,0.23c0.27,0,0.52-0.09,0.75-0.26c0.23-0.17,0.39-0.38,0.47-0.64s0.09-0.54,0.03-0.83
				S98.7,108.33,98.48,108.03z"/>
			<path class="st2" d="M102.78,107.48c-0.13-0.13-0.24-0.28-0.35-0.44s-0.19-0.33-0.25-0.53c-0.06-0.2-0.08-0.42-0.07-0.66
				c0.01-0.24,0.07-0.52,0.18-0.83c0.06-0.17,0.12-0.33,0.18-0.5c0.07-0.17,0.12-0.34,0.16-0.51c0.04-0.17,0.05-0.33,0.03-0.48
				c-0.02-0.15-0.09-0.28-0.2-0.41c-0.09-0.1-0.21-0.17-0.36-0.21c-0.15-0.04-0.3-0.04-0.47,0.01c-0.17,0.05-0.34,0.15-0.51,0.31
				c-0.12,0.12-0.22,0.24-0.29,0.37c-0.07,0.13-0.12,0.26-0.14,0.38c-0.03,0.13-0.04,0.24-0.05,0.34c0,0.1-0.01,0.19-0.01,0.26
				l-0.51-0.04c0-0.04,0-0.12,0.01-0.25c0.01-0.12,0.04-0.27,0.08-0.44c0.04-0.17,0.12-0.34,0.22-0.53s0.24-0.36,0.41-0.52
				c0.24-0.22,0.48-0.37,0.73-0.45c0.25-0.08,0.48-0.08,0.71-0.03c0.22,0.06,0.41,0.17,0.57,0.33c0.15,0.16,0.25,0.33,0.29,0.51
				c0.04,0.18,0.05,0.36,0.02,0.55c-0.03,0.19-0.07,0.36-0.13,0.53c-0.06,0.17-0.11,0.32-0.16,0.45c-0.1,0.26-0.17,0.49-0.21,0.69
				c-0.04,0.2-0.06,0.38-0.05,0.54s0.03,0.3,0.07,0.42s0.09,0.24,0.16,0.34l2.08-1.97l0.34,0.36L102.78,107.48z"/>
			<path class="st2" d="M108.91,100.29l0.38,0.32l-1.75,2.07l-0.38-0.32l0.73-0.87l-2.62-2.21c0.02,0.07,0.03,0.17,0.02,0.3
				c-0.01,0.12-0.03,0.26-0.07,0.4c-0.04,0.14-0.08,0.27-0.13,0.4c-0.05,0.12-0.11,0.23-0.18,0.31l-0.4-0.34
				c0.08-0.09,0.14-0.22,0.18-0.37c0.04-0.16,0.07-0.31,0.08-0.47c0.02-0.16,0.02-0.3,0.02-0.42s-0.01-0.19-0.02-0.22l0.36-0.43
				l3.11,2.63L108.91,100.29z"/>
		</g>
	</g>
	<g>
		<g>
			<path class="st3" d="M64.3,60.53c0.11,0.02,0.1,0.27-0.03,0.73c-0.25,1.04-0.66,1.98-1.22,2.81c-0.59,0.91-1.32,1.63-2.19,2.16
				c-0.82,0.54-1.78,0.89-2.89,1.06c-0.93,0.15-1.96,0.17-3.07,0.05c-0.06-0.02-0.1-0.03-0.12-0.03c-0.57,0.73-1.13,1.4-1.7,2.01
				c-0.03,0.03-0.07,0.07-0.12,0.12c-0.04,0.05-0.09,0.1-0.13,0.13c-0.04,0.04-0.09,0.08-0.13,0.13s-0.08,0.09-0.12,0.12
				c-0.79,0.76-1.58,1.42-2.37,1.98c-0.94,0.67-1.85,1.17-2.73,1.48c-0.41,0.16-0.92,0.29-1.53,0.41c-0.64,0.08-1.17,0.09-1.6,0.04
				c-1.01-0.06-2.01-0.4-2.99-1.02c-0.05-0.04-0.13-0.09-0.25-0.16c-0.02,0.04-0.06,0.13-0.11,0.24c-0.06,0.12-0.1,0.2-0.14,0.26
				c-0.1,0.21-0.16,0.32-0.19,0.32l-0.6-0.24c-0.03-0.02,0.01-0.15,0.13-0.4c0.04-0.08,0.1-0.19,0.18-0.34s0.14-0.25,0.15-0.3
				c-0.49-0.4-0.99-0.89-1.48-1.45c-0.38-0.44-0.66-0.9-0.85-1.37c-0.2-0.55-0.26-1.1-0.18-1.63c0.07-0.55,0.31-1.05,0.71-1.49
				c0.33-0.39,0.76-0.71,1.29-0.97c0.82-0.4,1.84-0.62,3.05-0.67c0.48-0.01,0.97,0,1.47,0.02c0.83-1.49,1.58-2.83,2.24-4.02
				l1.66-3.04c0.48-0.93,0.75-1.44,0.78-1.53c0.02-0.03,0.07-0.14,0.17-0.33c0.09-0.19,0.16-0.34,0.2-0.45l0.32-0.78
				c0.46-1.23,0.74-2.33,0.83-3.29c0.06-0.52,0.03-1.07-0.09-1.65c-0.12-0.53-0.34-1.02-0.67-1.46c-0.3-0.39-0.73-0.71-1.28-0.96
				c-0.49-0.23-1.02-0.36-1.59-0.41c-0.02,0-0.3-0.01-0.86-0.02c-0.02,0-0.13,0-0.35,0.01c-0.21,0.01-0.38,0.02-0.49,0.05
				l-0.43,0.06l-0.41,0.06c-0.05,0.01-0.32,0.08-0.82,0.2c-1.04,0.29-2.09,0.72-3.15,1.3c-1.06,0.6-1.98,1.27-2.75,2.02
				c-0.91,0.88-1.58,1.8-2,2.75c-0.23,0.47-0.4,1.01-0.53,1.6c-0.11,0.58-0.15,1.14-0.13,1.68c0.05,1.24,0.38,2.31,0.99,3.19
				c0.34,0.5,0.74,0.89,1.2,1.16c0.48,0.31,1.01,0.44,1.59,0.38c0.11-0.02,0.25-0.05,0.41-0.08c0.16-0.03,0.26-0.04,0.3-0.05
				c0.04,0,0.08,0,0.13,0c0.01,0.02-0.01,0.05-0.08,0.1c-0.07,0.05-0.17,0.1-0.31,0.15c-0.14,0.05-0.28,0.08-0.42,0.09
				c-0.62,0.08-1.21-0.04-1.76-0.37c-0.49-0.29-0.91-0.71-1.28-1.24c-0.66-0.94-1.02-2.05-1.08-3.32c-0.02-0.57,0.03-1.16,0.14-1.77
				c0.13-0.61,0.31-1.17,0.53-1.67c0.44-1,1.12-1.95,2.03-2.86c0.79-0.76,1.73-1.46,2.83-2.09c1.08-0.61,2.15-1.07,3.22-1.37
				c0.5-0.14,0.79-0.21,0.85-0.22l0.44-0.09l0.43-0.06c0.1-0.01,0.19-0.02,0.29-0.02c0.1-0.01,0.2-0.02,0.32-0.02
				c0.12-0.01,0.21-0.02,0.28-0.03c0.57,0.01,0.87,0.02,0.9,0.02c0.62,0.05,1.2,0.19,1.75,0.42c0.61,0.27,1.1,0.63,1.46,1.09
				c0.39,0.49,0.65,1.04,0.78,1.65c0.13,0.63,0.17,1.23,0.12,1.79c-0.08,1.01-0.36,2.15-0.84,3.43l-0.33,0.83
				c-0.04,0.11-0.11,0.26-0.2,0.46c-0.1,0.2-0.14,0.31-0.14,0.32c-0.06,0.11-0.32,0.63-0.79,1.58l-1.66,3.04
				c-0.61,1.13-1.3,2.4-2.06,3.81c0.08,0.01,0.17,0.01,0.26,0.02c1.68-2.69,3.37-5.17,5.07-7.41c1.38-1.86,2.68-3.43,3.88-4.7
				c0.81-0.84,1.55-1.54,2.23-2.11c0.98-0.78,1.87-1.31,2.67-1.58c0.31-0.09,0.57-0.14,0.8-0.15c0.06-0.01,0.2-0.02,0.4-0.02
				c0.01,0,0.09,0.02,0.23,0.04c0.06,0,0.13,0.03,0.21,0.06c0.31,0.1,0.54,0.31,0.69,0.62l0.16,0.39l0.09,0.39
				c0.11,0.79,0.03,1.83-0.24,3.12c-0.39,1.73-1.05,3.65-1.99,5.77c-0.86,1.87-1.83,3.66-2.92,5.39c-0.58,0.89-1.17,1.73-1.77,2.53
				c1.05,0.13,2.01,0.12,2.88-0.02c1.08-0.15,2-0.49,2.79-1c0.55-0.34,1.05-0.76,1.5-1.28c0.45-0.51,0.83-1.06,1.13-1.64
				c0.3-0.58,0.53-1.2,0.69-1.87C64.16,60.75,64.25,60.52,64.3,60.53z M40.81,71.56c0.52-1.04,1.4-2.69,2.62-4.96
				c0.02-0.03,0.31-0.56,0.86-1.6c-0.44,0-0.85,0-1.21,0c-1.13,0.07-2.08,0.29-2.84,0.66c-0.46,0.23-0.83,0.52-1.11,0.84
				c-0.31,0.37-0.5,0.78-0.57,1.22c-0.07,0.45-0.01,0.91,0.18,1.37c0.16,0.41,0.4,0.8,0.74,1.18
				C39.94,70.78,40.38,71.21,40.81,71.56z M52.54,68.83c0.48-0.5,0.96-1.04,1.44-1.63c-0.64-0.13-1.33-0.3-2.08-0.52
				c-0.48-0.15-0.96-0.3-1.44-0.47c-0.08-0.02-0.56-0.16-1.44-0.42c-1.29-0.34-2.45-0.56-3.49-0.67c-0.5,0.79-0.99,1.57-1.47,2.34
				c-0.27,0.44-0.44,0.64-0.5,0.6c-0.08-0.04,0.02-0.28,0.29-0.71c0.44-0.73,0.9-1.49,1.39-2.27c-0.03,0-0.07,0-0.12-0.01
				c-0.05,0-0.08-0.01-0.09-0.01c-0.06,0.09-0.14,0.24-0.25,0.44c-0.11,0.21-0.2,0.37-0.26,0.49s-0.14,0.27-0.24,0.45
				c-0.09,0.18-0.18,0.33-0.25,0.47c-1.23,2.32-2.1,4.02-2.63,5.1c0.11,0.07,0.2,0.13,0.29,0.19c0.91,0.55,1.81,0.85,2.72,0.9
				c0.38,0.04,0.85,0.03,1.43-0.06c0.58-0.11,1.05-0.24,1.41-0.39c0.82-0.3,1.67-0.78,2.56-1.42c0.75-0.53,1.51-1.18,2.27-1.94
				c0.05-0.04,0.14-0.13,0.26-0.25C52.46,68.91,52.52,68.84,52.54,68.83z M54.24,66.86c0.68-0.85,1.35-1.78,2-2.77
				c1.08-1.68,2.05-3.43,2.91-5.27c0.97-2.07,1.65-3.94,2.05-5.62c0.27-1.23,0.35-2.2,0.25-2.91c-0.01-0.05-0.03-0.11-0.04-0.19
				c-0.02-0.08-0.03-0.13-0.02-0.14c-0.02-0.02-0.04-0.07-0.06-0.15c-0.03-0.08-0.05-0.14-0.06-0.17c-0.1-0.18-0.24-0.31-0.42-0.39
				c-0.04-0.02-0.09-0.03-0.14-0.03c-0.02,0-0.04-0.01-0.07-0.02c-0.03-0.01-0.05-0.02-0.07-0.02c-0.19,0-0.31,0-0.36,0
				c-0.18,0.02-0.4,0.06-0.68,0.14c-0.75,0.24-1.6,0.73-2.54,1.47c-0.68,0.54-1.41,1.22-2.2,2.04c-1.21,1.25-2.51,2.8-3.9,4.62
				c-1.69,2.2-3.39,4.62-5.08,7.25c0.99,0.14,2.1,0.38,3.32,0.71c0.9,0.26,1.39,0.41,1.46,0.45c0.48,0.16,0.96,0.32,1.44,0.47
				C52.83,66.57,53.57,66.75,54.24,66.86z"/>
			<path class="st3" d="M69.57,60.96c0.06,0.05,0.06,0.12,0.01,0.19c-1.03,1.21-2.04,2.17-3.03,2.91c-0.75,0.53-1.42,0.86-2,0.99
				c-0.18,0.05-0.38,0.07-0.6,0.07c-0.25-0.02-0.46-0.06-0.61-0.12c-0.23-0.07-0.43-0.18-0.59-0.33c-0.16-0.16-0.28-0.35-0.36-0.6
				c-0.01-0.02-0.03-0.05-0.04-0.1l0-0.05c-0.07-0.35-0.04-0.76,0.09-1.23c0.12-0.36,0.28-0.69,0.48-1.01
				c0.43-0.68,0.94-1.23,1.53-1.64c0.2-0.13,0.37-0.22,0.52-0.27c0.12-0.05,0.25-0.07,0.4-0.04c0.15,0.03,0.26,0.1,0.33,0.22
				c0.06,0.1,0.08,0.23,0.07,0.39c-0.01,0.09-0.03,0.2-0.07,0.3c-0.05,0.17-0.12,0.35-0.23,0.53c-0.37,0.62-0.88,1.13-1.55,1.52
				c-0.07,0.06-0.12,0.05-0.17-0.01c-0.04-0.07-0.02-0.12,0.06-0.16c0.59-0.41,1.03-0.92,1.33-1.51c0.09-0.17,0.15-0.32,0.18-0.46
				c0.02-0.08,0.04-0.15,0.04-0.21c0-0.05,0-0.09-0.01-0.12c-0.03-0.03-0.06-0.05-0.09-0.05c-0.03,0.01-0.07,0.03-0.12,0.04
				c-0.12,0.05-0.25,0.14-0.4,0.25c-0.51,0.39-0.93,0.9-1.29,1.54c-0.15,0.29-0.27,0.59-0.36,0.9c-0.09,0.36-0.11,0.65-0.04,0.88
				c0,0.02,0,0.03,0.01,0.05c0.01,0.02,0.01,0.03,0.01,0.05c0.06,0.24,0.22,0.41,0.49,0.51c0.11,0.04,0.25,0.08,0.42,0.1
				c0.17,0.01,0.32,0.01,0.45-0.01c0.53-0.09,1.14-0.35,1.85-0.79c1.02-0.67,2.06-1.56,3.13-2.69
				C69.45,60.92,69.51,60.91,69.57,60.96z"/>
			<path class="st3" d="M76.27,61.49c0.05,0.06,0.03,0.13-0.05,0.2c-0.43,0.4-1.1,0.99-2.02,1.77c-0.92,0.77-1.63,1.34-2.16,1.71
				c-0.12,0.07-0.22,0.13-0.3,0.19c-0.08,0.04-0.14,0.07-0.17,0.08c-0.07,0.04-0.16,0.08-0.27,0.12c-0.05,0.01-0.09,0.02-0.12,0.01
				c-0.06,0.01-0.1,0.02-0.12,0.01c-0.02,0-0.04,0-0.06,0c-0.02,0-0.04-0.01-0.06-0.03l-0.07-0.03l-0.04-0.03
				c-0.12-0.1-0.17-0.26-0.16-0.46c-0.01-0.02-0.01-0.11,0.02-0.28l0.04-0.19c0.02-0.11,0.06-0.22,0.1-0.35
				c0.06-0.2,0.14-0.43,0.24-0.67c0.25-0.62,0.57-1.31,0.95-2.09c-0.07,0.06-0.14,0.12-0.2,0.17c-0.14,0.12-0.29,0.26-0.46,0.44
				c-0.24,0.24-0.54,0.55-0.88,0.96c-0.09,0.09-0.26,0.29-0.52,0.59c-0.26,0.3-0.49,0.56-0.68,0.77c-0.19,0.21-0.39,0.41-0.59,0.6
				l-0.1,0.06c-0.02,0.03-0.05,0.06-0.1,0.09c-0.1,0.07-0.18,0.11-0.23,0.13c-0.15,0.08-0.29,0.1-0.41,0.06
				c-0.08-0.02-0.14-0.06-0.18-0.11c-0.03-0.05-0.05-0.12-0.08-0.2c-0.02-0.13-0.01-0.29,0.04-0.5c0.03-0.12,0.06-0.26,0.1-0.4
				c0.04-0.08,0.08-0.18,0.12-0.32c0.06-0.17,0.15-0.38,0.26-0.62c0.21-0.49,0.63-1.34,1.27-2.54c0.02-0.05,0.04-0.06,0.08-0.04
				L70,60.9c0.03,0.02,0.04,0.05,0.02,0.1c-0.64,1.08-1.09,1.89-1.36,2.44c-0.11,0.23-0.21,0.42-0.28,0.57
				c-0.06,0.12-0.1,0.22-0.12,0.3l-0.09,0.21c0,0.05-0.01,0.08-0.01,0.09c-0.02,0.05-0.01,0.08,0.02,0.1c0.03,0,0.06-0.01,0.1-0.04
				l0.05-0.02l0-0.02l0.05-0.02c0.19-0.16,0.8-0.76,1.83-1.81c0.38-0.4,0.69-0.71,0.93-0.93c0.2-0.17,0.37-0.32,0.51-0.44
				c0.23-0.17,0.42-0.29,0.55-0.34c0-0.01,0.01-0.03,0.03-0.04C72.25,61,72.27,60.99,72.3,61l0.55,0.3c0.03,0,0.04,0.03,0.02,0.07
				c-0.51,0.91-0.93,1.71-1.23,2.4c-0.1,0.23-0.18,0.44-0.24,0.62c-0.04,0.11-0.08,0.21-0.12,0.3l-0.04,0.16l0,0.05
				c-0.02,0.05-0.02,0.08-0.01,0.09c0.01,0.02,0.05,0.02,0.09,0.01c0.02-0.01,0.03-0.03,0.05-0.03c0.02-0.01,0.06-0.02,0.12-0.05
				c0.08-0.06,0.18-0.11,0.3-0.17c0.52-0.34,1.25-0.87,2.19-1.59c0.98-0.76,1.67-1.32,2.08-1.67
				C76.15,61.44,76.22,61.43,76.27,61.49z"/>
			<path class="st3" d="M80.75,61.82c0.05,0.05,0.03,0.12-0.05,0.21c-0.64,0.68-1.3,1.33-1.98,1.94c-0.41,0.37-0.77,0.67-1.09,0.92
				c-0.46,0.35-0.87,0.61-1.23,0.79c-0.28,0.14-0.52,0.22-0.73,0.25c-0.15,0.02-0.29,0.02-0.45-0.01c-0.18-0.06-0.33-0.18-0.43-0.34
				c-0.11-0.21-0.15-0.5-0.12-0.87c0.03-0.22,0.08-0.46,0.15-0.73c0.23-0.76,0.62-1.64,1.16-2.65c0.04-0.06,0.07-0.08,0.1-0.06
				l0.52,0.33c0.03,0.02,0.04,0.05,0.02,0.1c-0.55,0.94-0.95,1.76-1.21,2.45c-0.08,0.25-0.14,0.47-0.17,0.65
				c-0.03,0.24-0.02,0.4,0.03,0.5c0.01,0.05,0.04,0.08,0.09,0.1c0.09,0.02,0.18,0.03,0.26,0.02c0.16-0.02,0.36-0.08,0.59-0.19
				c0.59-0.27,1.35-0.78,2.29-1.54c0.73-0.58,1.42-1.18,2.07-1.81C80.63,61.79,80.69,61.77,80.75,61.82z M77.48,60.14l-0.45,0.65
				l-0.63-0.45l0.45-0.65L77.48,60.14z"/>
			<path class="st3" d="M85.8,62.19c0.08,0.02,0.09,0.09,0.05,0.22c-0.16,0.48-0.45,0.89-0.86,1.22c-0.39,0.3-0.86,0.49-1.42,0.56
				c-0.56,0.05-1.15,0.15-1.78,0.29c0.03,0.18,0.04,0.35,0.03,0.53c-0.04,0.54-0.24,1.04-0.59,1.5c-0.35,0.46-0.79,0.79-1.31,0.97
				c-0.02,0-0.04,0-0.06,0.01s-0.05,0.01-0.07,0.02c-0.02,0.01-0.04,0.01-0.06,0.01c-0.31,0.06-0.6,0.05-0.88-0.02
				c-0.28-0.07-0.54-0.2-0.78-0.39l-0.16-0.13c-0.03-0.03-0.08-0.09-0.15-0.18c-0.01-0.02-0.06-0.08-0.13-0.2
				c-0.05-0.11-0.08-0.2-0.08-0.24c-0.05-0.18-0.04-0.36,0.02-0.55c0.08-0.15,0.16-0.28,0.27-0.38c0.29-0.28,0.76-0.54,1.39-0.77
				c0.41-0.14,0.88-0.27,1.41-0.39c0.08-0.03,0.24-0.06,0.48-0.1l-0.04-0.12c-0.04-0.08-0.09-0.18-0.14-0.3
				c-0.24-0.45-0.42-0.92-0.56-1.42c-0.12-0.53-0.16-1.04-0.12-1.51c0.02-0.28,0.07-0.53,0.15-0.75c0.06-0.15,0.13-0.28,0.22-0.36
				c0.11-0.13,0.23-0.22,0.38-0.26c0.15-0.05,0.3-0.05,0.45,0.01c0.19,0.06,0.31,0.17,0.38,0.31c0.05,0.13,0.06,0.28,0.01,0.45
				c-0.04,0.11-0.1,0.23-0.17,0.37c-0.19,0.33-0.5,0.71-0.95,1.14c0.03,0.18,0.07,0.34,0.11,0.48c0.14,0.46,0.33,0.87,0.57,1.26
				c0.12,0.23,0.21,0.43,0.26,0.59c0.66-0.11,1.28-0.18,1.87-0.21c0.48-0.04,0.9-0.18,1.27-0.43c0.37-0.29,0.64-0.64,0.79-1.06
				C85.66,62.23,85.72,62.18,85.8,62.19z M81.2,64.95c0.01-0.11,0.01-0.23,0-0.36c-0.23,0.05-0.37,0.08-0.44,0.11
				c-0.52,0.13-0.97,0.28-1.37,0.44c-0.52,0.21-0.9,0.44-1.12,0.67c-0.05,0.04-0.1,0.11-0.13,0.2c0,0.06,0,0.11,0.01,0.14
				c0.02,0.13,0.13,0.26,0.33,0.41c0.33,0.25,0.69,0.32,1.08,0.23c0.06-0.03,0.11-0.04,0.15-0.04c0.37-0.11,0.71-0.34,1-0.68
				S81.17,65.36,81.2,64.95z M80.67,60.82c0,0.19,0.01,0.39,0.03,0.6c0.34-0.37,0.59-0.7,0.74-0.99c0.13-0.26,0.17-0.44,0.11-0.54
				c-0.03-0.07-0.09-0.11-0.19-0.15c-0.1-0.03-0.18-0.03-0.25-0.01c-0.15,0.05-0.25,0.19-0.32,0.43
				C80.73,60.35,80.69,60.56,80.67,60.82z"/>
			<path class="st3" d="M91.09,62.62c0.06,0.05,0.06,0.12,0.01,0.19c-1.03,1.21-2.04,2.17-3.03,2.91c-0.75,0.53-1.42,0.86-2,0.99
				c-0.18,0.05-0.38,0.07-0.6,0.07c-0.25-0.02-0.46-0.06-0.61-0.12c-0.23-0.07-0.43-0.18-0.59-0.33s-0.28-0.36-0.36-0.6
				c-0.01-0.02-0.03-0.05-0.04-0.1l0-0.05c-0.07-0.35-0.04-0.76,0.09-1.23c0.12-0.36,0.28-0.69,0.48-1.01
				c0.43-0.68,0.94-1.23,1.53-1.64c0.2-0.13,0.37-0.22,0.52-0.27c0.11-0.05,0.25-0.07,0.4-0.04c0.15,0.03,0.26,0.1,0.33,0.22
				c0.05,0.1,0.08,0.23,0.06,0.38c-0.01,0.09-0.03,0.2-0.07,0.3c-0.04,0.17-0.12,0.35-0.23,0.53c-0.37,0.62-0.88,1.13-1.55,1.52
				c-0.07,0.06-0.12,0.05-0.17-0.01c-0.04-0.07-0.02-0.12,0.06-0.16c0.59-0.42,1.03-0.92,1.33-1.52c0.09-0.17,0.15-0.32,0.18-0.46
				c0.02-0.08,0.04-0.15,0.04-0.21c0-0.05,0-0.09-0.01-0.12c-0.03-0.03-0.06-0.05-0.09-0.05c-0.03,0.01-0.07,0.03-0.12,0.04
				c-0.11,0.05-0.25,0.14-0.4,0.25c-0.51,0.39-0.93,0.9-1.29,1.54c-0.15,0.29-0.27,0.59-0.35,0.9c-0.09,0.36-0.11,0.65-0.04,0.88
				c0,0.02,0,0.03,0.01,0.05s0.01,0.03,0.01,0.05c0.06,0.24,0.22,0.41,0.48,0.51c0.11,0.04,0.25,0.08,0.42,0.1
				c0.17,0.01,0.32,0.01,0.45-0.01c0.53-0.09,1.14-0.35,1.85-0.79c1.02-0.67,2.06-1.56,3.13-2.68
				C90.98,62.58,91.03,62.57,91.09,62.62z"/>
			<path class="st3" d="M96.16,62.99c0.08,0.02,0.1,0.09,0.05,0.22c-0.16,0.48-0.45,0.89-0.86,1.22c-0.39,0.3-0.86,0.49-1.42,0.56
				c-0.56,0.05-1.15,0.15-1.78,0.29c0.03,0.18,0.04,0.35,0.03,0.53c-0.04,0.54-0.24,1.04-0.59,1.5c-0.35,0.46-0.79,0.79-1.31,0.97
				c-0.02,0-0.04,0-0.06,0.01c-0.02,0.01-0.05,0.01-0.07,0.02c-0.02,0.01-0.04,0.01-0.06,0.01c-0.31,0.06-0.6,0.05-0.88-0.02
				c-0.28-0.07-0.54-0.2-0.78-0.39l-0.16-0.13c-0.03-0.03-0.08-0.09-0.15-0.18c-0.01-0.02-0.06-0.08-0.13-0.2
				c-0.06-0.11-0.08-0.2-0.08-0.24c-0.05-0.18-0.04-0.36,0.02-0.55c0.08-0.15,0.17-0.28,0.27-0.38c0.29-0.28,0.75-0.54,1.39-0.77
				c0.41-0.14,0.88-0.27,1.41-0.39c0.08-0.03,0.24-0.06,0.48-0.11l-0.04-0.12c-0.04-0.08-0.09-0.18-0.14-0.3
				c-0.24-0.45-0.42-0.92-0.56-1.42c-0.12-0.53-0.16-1.04-0.12-1.51c0.02-0.28,0.07-0.53,0.15-0.75c0.06-0.15,0.13-0.28,0.22-0.36
				c0.11-0.13,0.23-0.22,0.38-0.26c0.15-0.05,0.3-0.05,0.45,0.01c0.19,0.06,0.31,0.17,0.38,0.32c0.05,0.13,0.06,0.28,0.01,0.45
				c-0.04,0.11-0.1,0.23-0.17,0.37c-0.19,0.33-0.5,0.71-0.94,1.14c0.03,0.18,0.07,0.34,0.1,0.48c0.14,0.46,0.33,0.87,0.57,1.26
				c0.12,0.23,0.21,0.43,0.26,0.59c0.66-0.11,1.28-0.18,1.87-0.21c0.48-0.04,0.9-0.18,1.27-0.42c0.37-0.29,0.64-0.64,0.79-1.06
				C96.02,63.03,96.08,62.98,96.16,62.99z M91.56,65.75c0.01-0.11,0.01-0.23,0-0.36c-0.23,0.05-0.37,0.08-0.44,0.11
				c-0.52,0.13-0.97,0.28-1.37,0.44c-0.52,0.21-0.9,0.44-1.12,0.67c-0.05,0.04-0.1,0.11-0.13,0.2c0,0.06,0,0.11,0.01,0.14
				c0.02,0.13,0.13,0.26,0.33,0.41c0.33,0.25,0.69,0.32,1.08,0.23c0.07-0.03,0.11-0.04,0.15-0.04c0.37-0.11,0.71-0.34,1-0.68
				C91.37,66.54,91.53,66.16,91.56,65.75z M91.03,61.62c0,0.19,0.01,0.39,0.03,0.6c0.34-0.37,0.59-0.7,0.74-0.99
				c0.13-0.26,0.17-0.44,0.11-0.54c-0.03-0.07-0.09-0.11-0.19-0.15c-0.1-0.03-0.18-0.03-0.25-0.01c-0.15,0.05-0.25,0.19-0.32,0.43
				C91.09,61.15,91.05,61.37,91.03,61.62z"/>
		</g>
		<g>
			<g>
				<path class="st4" d="M39.88,85.12c-0.01,0.08-0.12,0.48-0.33,1.21s-0.39,1.32-0.53,1.75c-0.32,0.96-0.59,1.56-0.8,1.8
					c-0.17,0.18-0.37,0.28-0.62,0.28c-0.29,0-0.52-0.14-0.67-0.43c-0.05-0.08-0.07-0.17-0.07-0.27c0-0.1,0.08-0.32,0.23-0.65
					c0.41-0.85,0.95-2.51,1.62-5c0.27-0.98,0.45-1.65,0.54-2.01l0.25-0.96c0.16-0.64,0.25-1.07,0.28-1.3
					c0.03-0.23,0.01-0.39-0.04-0.48s-0.12-0.17-0.19-0.22c-0.07-0.05-0.14-0.09-0.2-0.13c-0.06-0.04-0.09-0.1-0.08-0.2
					c0.01-0.09,0.05-0.18,0.13-0.26c0.07-0.08,0.17-0.15,0.28-0.2c0.23-0.11,0.46-0.16,0.7-0.16s0.42,0.03,0.55,0.08
					s0.24,0.13,0.33,0.23c0.18,0.2,0.27,0.4,0.25,0.58c-0.05,0.39-0.11,0.73-0.17,1.02c0.9-1.28,1.83-1.92,2.79-1.92
					c0.88,0,1.46,0.45,1.76,1.36c0.1,0.32,0.15,0.7,0.15,1.16c0,0.46-0.07,0.91-0.21,1.37s-0.33,0.89-0.56,1.3
					c-0.24,0.41-0.51,0.79-0.82,1.13c-0.31,0.35-0.64,0.65-0.99,0.9c-0.74,0.53-1.44,0.8-2.09,0.8S40.21,85.66,39.88,85.12z
					 M41.07,81.84c-0.19,0.36-0.34,0.72-0.45,1.08c-0.12,0.36-0.17,0.69-0.17,0.98c0,0.3,0.06,0.54,0.19,0.74
					c0.13,0.19,0.32,0.29,0.57,0.29c0.25,0,0.5-0.07,0.75-0.2c0.25-0.14,0.49-0.32,0.72-0.55s0.45-0.5,0.65-0.81
					c0.2-0.31,0.38-0.64,0.53-0.99c0.32-0.76,0.48-1.48,0.48-2.16c0-0.37-0.05-0.66-0.15-0.86s-0.25-0.31-0.45-0.31
					c-0.2,0-0.41,0.08-0.63,0.23c-0.22,0.16-0.45,0.36-0.69,0.62s-0.48,0.56-0.72,0.89C41.47,81.13,41.26,81.48,41.07,81.84z"/>
				<path class="st4" d="M47.9,85.33c-0.22-0.21-0.38-0.46-0.51-0.78s-0.19-0.69-0.19-1.12s0.05-0.87,0.16-1.31
					c0.11-0.44,0.27-0.87,0.47-1.28c0.2-0.41,0.45-0.79,0.73-1.15c0.28-0.36,0.6-0.67,0.94-0.94c0.75-0.57,1.53-0.86,2.33-0.86
					c1.06,0,1.77,0.46,2.15,1.39c0.27,0.67,0.28,1.48,0.05,2.44c-0.22,0.88-0.61,1.68-1.18,2.42c-0.57,0.73-1.24,1.25-2.02,1.56
					c-0.39,0.15-0.77,0.23-1.15,0.23s-0.71-0.05-1.01-0.15S48.11,85.53,47.9,85.33z M49.37,81.6c-0.15,0.38-0.28,0.77-0.37,1.17
					c-0.09,0.4-0.13,0.78-0.13,1.13c0,0.36,0.06,0.64,0.17,0.84s0.28,0.3,0.51,0.3c0.24,0,0.47-0.08,0.7-0.24
					c0.23-0.16,0.45-0.38,0.67-0.64c0.21-0.27,0.42-0.57,0.61-0.92s0.36-0.71,0.5-1.09c0.31-0.83,0.46-1.56,0.45-2.2
					c0-0.56-0.12-0.92-0.35-1.08c-0.09-0.06-0.22-0.09-0.39-0.09c-0.17,0-0.36,0.08-0.57,0.23c-0.22,0.15-0.43,0.35-0.65,0.61
					c-0.21,0.26-0.42,0.56-0.62,0.9S49.52,81.22,49.37,81.6z"/>
				<path class="st4" d="M55.31,85.67c-0.1-0.08-0.18-0.16-0.25-0.26s-0.1-0.18-0.1-0.25s0.01-0.15,0.04-0.25
					c0.03-0.1,0.08-0.22,0.13-0.37c1.05-2.57,1.57-4.3,1.57-5.18c-0.02-0.25-0.1-0.42-0.25-0.52l-0.15-0.11
					c-0.05-0.04-0.07-0.1-0.07-0.19c0-0.09,0.03-0.18,0.1-0.26s0.15-0.15,0.26-0.21c0.22-0.12,0.45-0.18,0.68-0.18
					s0.42,0.03,0.55,0.08c0.13,0.05,0.24,0.12,0.33,0.21c0.19,0.18,0.29,0.38,0.3,0.58c0,0.21-0.02,0.41-0.07,0.62
					c-0.05,0.21-0.11,0.42-0.17,0.62c-0.07,0.2-0.13,0.4-0.2,0.58c-0.07,0.18-0.11,0.32-0.13,0.4c-0.04,0.18-0.06,0.29-0.05,0.34
					c0.12-0.11,0.2-0.21,0.22-0.32l0.3-0.57c0.67-1.2,1.32-1.99,1.95-2.38c0.18-0.11,0.41-0.16,0.67-0.16s0.47,0.09,0.63,0.27
					c0.16,0.18,0.24,0.38,0.25,0.6c0.01,0.22-0.01,0.4-0.05,0.55c-0.04,0.15-0.1,0.28-0.17,0.41c-0.17,0.29-0.38,0.43-0.62,0.43
					c-0.07,0-0.13-0.02-0.18-0.07l-0.17-0.15c-0.17-0.15-0.33-0.22-0.49-0.22s-0.35,0.1-0.57,0.31c-0.22,0.21-0.46,0.47-0.7,0.79
					c-0.81,1.07-1.47,2.27-1.98,3.6l-0.34,0.89c-0.09,0.22-0.16,0.38-0.23,0.47s-0.17,0.14-0.3,0.14c-0.13,0-0.26-0.02-0.39-0.07
					S55.41,85.74,55.31,85.67z"/>
				<path class="st4" d="M66.18,83.84c0.15,0,0.22,0.1,0.22,0.3c0,0.17-0.05,0.33-0.15,0.49c-0.14,0.3-0.42,0.58-0.83,0.85
					c-0.47,0.3-0.95,0.45-1.42,0.45c-0.83,0-1.35-0.37-1.57-1.11c-0.26-0.88,0.13-2.74,1.18-5.58c-0.59-0.05-0.91-0.15-0.96-0.31
					c-0.02-0.05-0.02-0.1-0.02-0.15s0.02-0.12,0.07-0.19c0.05-0.07,0.11-0.14,0.19-0.21c0.18-0.15,0.36-0.22,0.55-0.22h0.61
					c0.55-1.3,0.95-2.04,1.18-2.21c0.11-0.08,0.24-0.12,0.38-0.12s0.25,0.02,0.35,0.05c0.09,0.04,0.17,0.09,0.25,0.15
					c0.16,0.15,0.25,0.33,0.25,0.52c0,0.1-0.03,0.22-0.09,0.35l-0.57,1.24h0.18c0.32,0,0.57,0,0.77-0.01l0.44-0.01
					c0.1-0.01,0.22-0.01,0.37-0.01s0.22,0.05,0.22,0.16c0,0.68-0.8,1.02-2.4,1.02h-0.06l-0.52,1.35c-0.59,1.6-0.88,2.72-0.88,3.36
					c0,0.18,0.04,0.32,0.12,0.42s0.24,0.15,0.46,0.15s0.43-0.04,0.62-0.12c0.18-0.08,0.35-0.16,0.48-0.26
					c0.14-0.1,0.26-0.18,0.36-0.26C66.02,83.87,66.11,83.84,66.18,83.84z"/>
				<path class="st4" d="M66.49,87.54c0-0.11,0.08-0.32,0.24-0.64c0.16-0.32,0.34-0.73,0.53-1.23s0.38-1.02,0.55-1.55
					c0.17-0.54,0.35-1.12,0.53-1.73l0.6-2.03l-0.8,0.21c-0.2,0-0.36-0.1-0.49-0.32c-0.03-0.06-0.05-0.12-0.05-0.2
					c0-0.08,0.06-0.17,0.18-0.27s0.27-0.2,0.45-0.3c0.36-0.18,0.73-0.33,1.11-0.42l0.07-0.21c0.14-0.43,0.27-0.88,0.4-1.34
					c0.13-0.46,0.26-0.92,0.4-1.36c0.14-0.44,0.3-0.86,0.48-1.26s0.39-0.75,0.63-1.04c0.53-0.65,1.2-0.97,2.01-0.97
					c0.59,0,1.07,0.16,1.42,0.48c0.35,0.32,0.52,0.75,0.52,1.29c0,0.56-0.16,1.05-0.48,1.47c-0.27,0.34-0.57,0.52-0.91,0.52
					c-0.42,0-0.7-0.19-0.85-0.57c-0.04-0.1-0.06-0.18-0.06-0.25c0-0.11,0.08-0.22,0.23-0.31c0.28-0.22,0.48-0.5,0.59-0.86
					c0.04-0.11,0.05-0.22,0.05-0.33c0-0.42-0.16-0.63-0.49-0.63c-0.45,0-0.87,0.51-1.25,1.53c-0.11,0.31-0.23,0.66-0.34,1.03
					l-0.72,2.45c0.47-0.07,0.81-0.11,1.02-0.11s0.4,0.02,0.57,0.07s0.31,0.12,0.45,0.2c0.3,0.2,0.45,0.45,0.45,0.74
					c0,0.29-0.14,0.44-0.43,0.44l-0.98-0.04c-0.53,0-1.03,0.02-1.48,0.07l-0.63,2.23c-0.42,1.51-0.75,2.61-1.01,3.3
					c-0.26,0.69-0.51,1.27-0.76,1.75c-0.23,0.44-0.58,0.65-1.05,0.65S66.49,87.86,66.49,87.54z"/>
				<path class="st4" d="M74.27,85.33c-0.22-0.21-0.38-0.46-0.51-0.78s-0.19-0.69-0.19-1.12s0.05-0.87,0.16-1.31
					c0.11-0.44,0.27-0.87,0.47-1.28c0.2-0.41,0.45-0.79,0.73-1.15c0.28-0.36,0.6-0.67,0.94-0.94c0.75-0.57,1.53-0.86,2.33-0.86
					c1.06,0,1.77,0.46,2.15,1.39c0.27,0.67,0.28,1.48,0.05,2.44c-0.22,0.88-0.61,1.68-1.18,2.42c-0.57,0.73-1.24,1.25-2.02,1.56
					c-0.39,0.15-0.77,0.23-1.15,0.23s-0.71-0.05-1.01-0.15S74.49,85.53,74.27,85.33z M75.74,81.6c-0.15,0.38-0.28,0.77-0.37,1.17
					c-0.09,0.4-0.13,0.78-0.13,1.13c0,0.36,0.06,0.64,0.17,0.84s0.28,0.3,0.51,0.3c0.24,0,0.47-0.08,0.7-0.24
					c0.23-0.16,0.45-0.38,0.67-0.64c0.21-0.27,0.42-0.57,0.61-0.92s0.36-0.71,0.5-1.09c0.31-0.83,0.46-1.56,0.45-2.2
					c0-0.56-0.12-0.92-0.35-1.08c-0.09-0.06-0.22-0.09-0.39-0.09c-0.17,0-0.36,0.08-0.57,0.23c-0.22,0.15-0.43,0.35-0.65,0.61
					c-0.21,0.26-0.42,0.56-0.62,0.9S75.89,81.22,75.74,81.6z"/>
				<path class="st4" d="M82.03,85.54c-0.13-0.13-0.23-0.3-0.31-0.51c-0.08-0.21-0.12-0.45-0.12-0.72s0.06-0.64,0.19-1.1
					c0.12-0.46,0.29-0.99,0.48-1.58l0.65-1.92c0.92-2.67,1.45-4.73,1.59-6.18c0.05-0.43,0.26-0.65,0.63-0.65
					c0.24,0,0.43,0.06,0.58,0.17c0.3,0.23,0.44,0.48,0.43,0.75c-0.01,0.28-0.06,0.61-0.15,1.01c-0.09,0.4-0.2,0.83-0.34,1.3
					c-0.14,0.47-0.3,0.97-0.48,1.49l-1.06,3.12c-0.61,1.77-0.92,2.92-0.92,3.44c0,0.28,0.11,0.42,0.34,0.42
					c0.22,0,0.41-0.05,0.59-0.14c0.18-0.09,0.29-0.14,0.34-0.14c0.11,0,0.16,0.05,0.16,0.16c0,0.46-0.23,0.84-0.7,1.15
					c-0.31,0.21-0.6,0.32-0.86,0.32s-0.47-0.03-0.63-0.09S82.16,85.68,82.03,85.54z"/>
				<path class="st4" d="M88.63,84.41c0.13,0,0.2,0.09,0.2,0.26c0,0.23-0.1,0.47-0.32,0.71c-0.31,0.36-0.72,0.54-1.24,0.54
					c-0.59,0-1-0.24-1.22-0.72c-0.08-0.17-0.12-0.37-0.12-0.62c0-0.24,0.04-0.51,0.13-0.8s0.19-0.6,0.32-0.93
					c0.13-0.33,0.26-0.65,0.41-0.99l0.41-0.97c0.3-0.72,0.45-1.2,0.45-1.43s-0.02-0.38-0.07-0.46c-0.05-0.07-0.1-0.13-0.16-0.17
					l-0.15-0.11c-0.05-0.04-0.08-0.1-0.08-0.19s0.03-0.18,0.1-0.26s0.16-0.15,0.27-0.21c0.23-0.12,0.5-0.18,0.81-0.18
					c0.75,0,1.13,0.2,1.13,0.59c0,0.46-0.12,0.99-0.36,1.58c-0.24,0.59-0.45,1.07-0.62,1.43l-0.46,1.06
					c-0.34,0.78-0.51,1.34-0.51,1.68c0,0.23,0.11,0.34,0.34,0.34c0.22,0,0.39-0.03,0.5-0.08C88.5,84.44,88.58,84.41,88.63,84.41z
					 M90.21,76.09c-0.11,0.12-0.24,0.22-0.38,0.29s-0.29,0.12-0.45,0.14c-0.16,0.02-0.31-0.01-0.45-0.07
					c-0.14-0.07-0.26-0.16-0.37-0.29c-0.22-0.26-0.33-0.51-0.33-0.78s0.04-0.46,0.13-0.59c0.08-0.13,0.19-0.24,0.32-0.32
					c0.25-0.16,0.48-0.24,0.7-0.24c0.22,0,0.39,0.02,0.51,0.05c0.12,0.03,0.23,0.08,0.33,0.15c0.25,0.17,0.38,0.38,0.38,0.62
					c0,0.24-0.03,0.45-0.1,0.61C90.41,75.83,90.32,75.97,90.21,76.09z"/>
				<path class="st4" d="M91.28,85.33c-0.22-0.21-0.38-0.46-0.51-0.78s-0.19-0.69-0.19-1.12s0.05-0.87,0.16-1.31
					c0.11-0.44,0.27-0.87,0.47-1.28c0.2-0.41,0.45-0.79,0.73-1.15c0.28-0.36,0.6-0.67,0.94-0.94c0.75-0.57,1.53-0.86,2.33-0.86
					c1.06,0,1.77,0.46,2.15,1.39c0.27,0.67,0.28,1.48,0.05,2.44c-0.22,0.88-0.61,1.68-1.18,2.42c-0.57,0.73-1.24,1.25-2.02,1.56
					c-0.39,0.15-0.77,0.23-1.15,0.23s-0.71-0.05-1.01-0.15S91.49,85.53,91.28,85.33z M92.75,81.6c-0.15,0.38-0.28,0.77-0.37,1.17
					c-0.09,0.4-0.13,0.78-0.13,1.13c0,0.36,0.06,0.64,0.17,0.84s0.28,0.3,0.51,0.3c0.24,0,0.47-0.08,0.7-0.24
					c0.23-0.16,0.45-0.38,0.67-0.64c0.21-0.27,0.42-0.57,0.61-0.92s0.36-0.71,0.5-1.09c0.31-0.83,0.46-1.56,0.45-2.2
					c0-0.56-0.12-0.92-0.35-1.08c-0.09-0.06-0.22-0.09-0.39-0.09c-0.17,0-0.36,0.08-0.57,0.23c-0.22,0.15-0.43,0.35-0.65,0.61
					c-0.21,0.26-0.42,0.56-0.62,0.9S92.9,81.22,92.75,81.6z"/>
			</g>
		</g>
	</g>
</g>
<g>
	<circle class="st5" cx="16.54" cy="71.86" r="1.53"/>
	<circle class="st5" cx="116.76" cy="71.86" r="1.53"/>
</g>
<g>
</g>
<g>
</g>
<g>
</g>
<g>
</g>
<g>
</g>
<g>
</g>
</svg>
