<?xml version="1.0" encoding="utf-8"?>
<!-- Generator: Adobe Illustrator 25.2.3, SVG Export Plug-In . SVG Version: 6.00 Build 0)  -->
<svg version="1.1" id="Layer_1" xmlns="http://www.w3.org/2000/svg" xmlns:xlink="http://www.w3.org/1999/xlink" x="0px" y="0px"
	 viewBox="0 0 137.02 137.02" style="enable-background:new 0 0 137.02 137.02;" xml:space="preserve">
<style type="text/css">
	.st0{fill:#EFEFEE;}
	.st1{opacity:0.09;filter:url(#AI_GaussianBlur_7);}
	.st2{opacity:0.09;}
	.st3{fill:none;}
	.st4{fill:#9F847B;}
	.st5{fill:#9D6B4D;}
	.st6{fill:#A39869;}
</style>
<filter  id="AI_GaussianBlur_7">
	<feGaussianBlur  stdDeviation="7"></feGaussianBlur>
</filter>
<circle class="st0" cx="68.51" cy="68.51" r="68.51"/>
<g>
	<g>
		<g class="st1">
			<defs>
				<path id="SVGID_1_" class="st2" d="M95.8,70.76c-3.91-22.17-20.69-42.05-43.29-50.01c-9.27-3.27-19.62-3.83-28.24,1.54
					C9.19,31.67,7.03,53.12,8.5,70.62c1.01,11.99,3.25,25.28,9.12,35.64c5,8.84,13.14,15.4,22.18,18.02
					c9.46,2.75,19.04,4.61,28.78,2.65c6.99-1.4,13.72-4.83,18.3-10.98C97.09,102.27,98.33,85.14,95.8,70.76z"/>
			</defs>
			<use xlink:href="#SVGID_1_"  style="overflow:visible;fill:#9F847B;"/>
			<clipPath id="SVGID_2_">
				<use xlink:href="#SVGID_1_"  style="overflow:visible;"/>
			</clipPath>
		</g>
		<g class="st1">
			<defs>
				<path id="SVGID_1_" class="st2" d="M44.66,46.52c-5.21,21.86,2.16,47.49,19.5,64.96c7.11,7.17,16.27,12.38,26.2,11.43
					c17.36-1.66,27.78-20.12,33.35-36.64c3.81-11.32,7.02-24.38,5.79-36.44c-1.05-10.28-5.84-19.92-12.99-26.39
					c-7.49-6.79-15.44-12.82-25.03-15.46c-6.88-1.9-14.34-1.85-20.91,1.64C55.92,17.38,48.04,32.34,44.66,46.52z"/>
			</defs>
			<use xlink:href="#SVGID_1_"  style="overflow:visible;fill:#9F847B;"/>
			<clipPath id="SVGID_3_">
				<use xlink:href="#SVGID_1_"  style="overflow:visible;"/>
			</clipPath>
		</g>
	</g>
	<g>
		<g>
			<circle class="st3" cx="68.63" cy="69.92" r="51.65"/>
			<path class="st4" d="M21.88,61.21l-7.95-0.81l5.9,4.4l-0.02,0.19l-6.66,3.12l7.95,0.81l-0.02,0.24L12.6,68.3l0.02-0.19l6.92-3.24
				l-6.12-4.57l0.02-0.19l8.48,0.86L21.88,61.21z"/>
			<path class="st4" d="M20.42,55.93l-3.3-1.14l0.08-0.23l3.3,1.14c0.83,0.29,1.5,0.36,2,0.23s0.85-0.48,1.04-1.04
				c0.13-0.38,0.17-0.77,0.12-1.18s-0.19-0.79-0.4-1.16c-0.22-0.37-0.5-0.67-0.86-0.92l-3.74-1.29l0.08-0.23l5.43,1.88
				c0.07,0.02,0.13,0.03,0.18,0c0.05-0.02,0.09-0.06,0.11-0.11l0.23,0.08c-0.02,0.05-0.03,0.08-0.04,0.1
				c-0.01,0.02-0.02,0.04-0.04,0.05c-0.06,0.07-0.13,0.11-0.23,0.12c-0.09,0.02-0.19,0.01-0.29-0.02l-1.04-0.36
				c0.4,0.43,0.67,0.92,0.8,1.48c0.13,0.56,0.11,1.11-0.08,1.64c-0.21,0.62-0.6,1.01-1.17,1.18C22.04,56.31,21.31,56.24,20.42,55.93
				z"/>
			<path class="st4" d="M18.86,43.91l0.11-0.21l6.97,3.7c0.21,0.11,0.4,0.13,0.59,0.07c0.19-0.06,0.34-0.2,0.45-0.41
				c0.04-0.08,0.08-0.18,0.12-0.29c0.04-0.12,0.07-0.23,0.09-0.34l0.21,0.02c-0.02,0.11-0.06,0.24-0.11,0.41
				c-0.05,0.16-0.1,0.29-0.16,0.39c-0.13,0.25-0.32,0.41-0.56,0.48c-0.24,0.07-0.5,0.04-0.76-0.1L18.86,43.91z"/>
			<path class="st4" d="M30.55,41.29c-0.02,0.23-0.05,0.43-0.1,0.6s-0.14,0.35-0.27,0.53c-0.11,0.16-0.25,0.28-0.41,0.37
				c-0.16,0.09-0.33,0.13-0.5,0.13c-0.18,0-0.34-0.06-0.5-0.17l-4.21-2.95l-0.52,0.74l-0.2-0.14l0.52-0.74l-1.78-1.25l0.14-0.2
				l1.78,1.25l0.86-1.23l0.2,0.14l-0.86,1.23l4.21,2.95c0.2,0.12,0.4,0.15,0.6,0.08c0.2-0.07,0.36-0.18,0.48-0.35
				c0.16-0.23,0.26-0.45,0.29-0.66c0.03-0.21,0.05-0.32,0.04-0.33L30.55,41.29z"/>
			<path class="st4" d="M27.26,33.34l-0.69-0.61l0.16-0.18l0.69,0.61L27.26,33.34z M33.12,38.54l-4.66-4.14l0.16-0.18l4.66,4.14
				L33.12,38.54z"/>
			<path class="st4" d="M43.27,29.62l-0.19,0.15l-2.12-2.75c-0.54-0.7-1.05-1.14-1.53-1.31s-0.94-0.09-1.39,0.26
				c-0.47,0.36-0.75,0.84-0.85,1.42c-0.1,0.59-0.02,1.18,0.23,1.78l2.4,3.11l-0.19,0.15l-2.12-2.75c-0.55-0.71-1.06-1.16-1.53-1.33
				c-0.47-0.17-0.93-0.08-1.38,0.27c-0.46,0.36-0.75,0.83-0.85,1.41c-0.1,0.58-0.03,1.18,0.21,1.8l2.41,3.12l-0.19,0.15l-3.81-4.93
				l0.19-0.15l0.98,1.27c-0.12-0.6-0.1-1.14,0.06-1.63s0.42-0.89,0.81-1.19c0.41-0.32,0.85-0.45,1.33-0.4
				c0.47,0.05,0.9,0.28,1.28,0.68c-0.12-0.67-0.12-1.25,0.03-1.74c0.14-0.49,0.42-0.89,0.84-1.22c0.26-0.2,0.52-0.33,0.78-0.38
				c0.26-0.05,0.52-0.03,0.79,0.05c0.27,0.09,0.55,0.25,0.83,0.49s0.57,0.55,0.86,0.93L43.27,29.62z"/>
			<path class="st4" d="M49.27,26.78c-0.37,0.17-0.76,0.25-1.16,0.24c-0.4-0.01-0.79-0.09-1.17-0.25c-0.38-0.16-0.71-0.39-1.02-0.68
				s-0.55-0.65-0.73-1.06c-0.24-0.53-0.34-1.07-0.3-1.62s0.21-1.04,0.5-1.48c0.29-0.44,0.68-0.77,1.17-1
				c0.5-0.23,1.02-0.3,1.55-0.23c0.53,0.08,1.02,0.28,1.47,0.61c0.45,0.33,0.79,0.77,1.04,1.31c0.01,0.02,0.02,0.04,0.03,0.06
				c0.01,0.02,0.02,0.04,0.03,0.06l-5.19,2.35c0.26,0.47,0.59,0.85,1,1.14s0.85,0.46,1.33,0.52s0.93-0.01,1.37-0.21
				c0.44-0.2,0.79-0.49,1.07-0.89c0.28-0.39,0.42-0.8,0.42-1.22l0.23-0.04c0.01,0.3-0.05,0.61-0.18,0.92
				c-0.14,0.31-0.33,0.59-0.58,0.85S49.6,26.63,49.27,26.78z M45.38,24.88l4.96-2.24c-0.26-0.5-0.59-0.89-0.99-1.18
				c-0.4-0.29-0.84-0.46-1.3-0.52c-0.47-0.06-0.93,0.01-1.38,0.21c-0.45,0.2-0.8,0.5-1.06,0.89c-0.26,0.39-0.42,0.83-0.46,1.33
				C45.11,23.86,45.18,24.36,45.38,24.88z"/>
			<path class="st4" d="M54.31,21.39c-0.13-0.56-0.12-1.11,0.01-1.64s0.38-0.99,0.74-1.38c0.36-0.39,0.81-0.65,1.34-0.77
				c0.55-0.13,1.08-0.09,1.58,0.11c0.5,0.2,0.91,0.48,1.25,0.83l-0.89-3.88l0.23-0.05l1.85,8.07c0.02,0.07,0.05,0.12,0.09,0.16
				c0.04,0.04,0.09,0.05,0.15,0.03l0.05,0.23c-0.07,0.02-0.12,0.02-0.16,0.01c-0.09-0.02-0.17-0.06-0.24-0.14
				c-0.07-0.07-0.11-0.15-0.13-0.25l-0.18-0.79c-0.16,0.46-0.43,0.87-0.81,1.23c-0.37,0.36-0.79,0.59-1.25,0.69
				c-0.42,0.1-0.83,0.1-1.23,0c-0.4-0.1-0.76-0.27-1.09-0.51s-0.61-0.53-0.84-0.87C54.56,22.15,54.4,21.78,54.31,21.39z
				 M59.85,21.22l-0.5-2.19c-0.19-0.3-0.45-0.55-0.78-0.76c-0.33-0.2-0.68-0.35-1.05-0.43s-0.73-0.08-1.05-0.01
				c-0.4,0.09-0.74,0.25-1.01,0.49s-0.5,0.52-0.66,0.85c-0.16,0.33-0.26,0.68-0.31,1.05c-0.04,0.37-0.02,0.74,0.06,1.11
				c0.09,0.38,0.24,0.73,0.46,1.05c0.22,0.32,0.48,0.58,0.79,0.8c0.31,0.22,0.65,0.36,1.01,0.45s0.73,0.08,1.1-0.01
				c0.23-0.05,0.47-0.16,0.72-0.32c0.25-0.16,0.47-0.35,0.67-0.58c0.2-0.23,0.35-0.48,0.46-0.73
				C59.86,21.73,59.89,21.47,59.85,21.22z"/>
			<path class="st4" d="M64.45,14.85l-0.07-0.92l0.24-0.02l0.07,0.92L64.45,14.85z M65.01,22.66l-0.45-6.21l0.24-0.02l0.45,6.21
				L65.01,22.66z"/>
			<path class="st4" d="M72.28,22.79c-0.41-0.03-0.79-0.14-1.14-0.34s-0.65-0.46-0.91-0.78c-0.25-0.32-0.44-0.68-0.57-1.09
				c-0.13-0.41-0.17-0.83-0.14-1.28c0.04-0.58,0.21-1.1,0.51-1.56s0.68-0.81,1.14-1.06c0.46-0.25,0.97-0.36,1.51-0.32
				c0.55,0.04,1.04,0.22,1.47,0.54c0.43,0.32,0.76,0.73,1,1.24s0.33,1.05,0.29,1.65c0,0.02,0,0.05,0,0.07c0,0.02,0,0.04,0,0.07
				l-5.68-0.42c0,0.54,0.11,1.03,0.34,1.48c0.22,0.45,0.53,0.82,0.92,1.1c0.39,0.28,0.82,0.44,1.3,0.48
				c0.48,0.04,0.93-0.05,1.37-0.27c0.43-0.21,0.75-0.5,0.96-0.87l0.22,0.08c-0.13,0.27-0.33,0.51-0.6,0.72s-0.57,0.36-0.92,0.47
				C72.99,22.77,72.64,22.81,72.28,22.79z M69.77,19.26l5.43,0.4c0.01-0.56-0.09-1.06-0.31-1.51s-0.51-0.81-0.89-1.08
				s-0.82-0.43-1.31-0.47c-0.49-0.04-0.94,0.05-1.36,0.27c-0.42,0.22-0.76,0.53-1.04,0.95S69.84,18.71,69.77,19.26z"/>
			<path class="st4" d="M79.27,20.46c0.16-0.55,0.42-1.03,0.79-1.44s0.81-0.69,1.31-0.86c0.5-0.17,1.02-0.18,1.55-0.04
				c0.55,0.15,0.99,0.44,1.33,0.85s0.58,0.86,0.7,1.32l1.07-3.84l0.23,0.06l-2.22,7.98c-0.02,0.07-0.02,0.13,0,0.18
				c0.02,0.05,0.06,0.08,0.12,0.1l-0.06,0.23c-0.07-0.02-0.12-0.04-0.14-0.06c-0.07-0.06-0.12-0.14-0.15-0.23s-0.02-0.19,0-0.28
				l0.22-0.79c-0.37,0.33-0.8,0.56-1.3,0.7c-0.5,0.13-0.98,0.14-1.43,0.01c-0.42-0.12-0.78-0.31-1.08-0.59
				c-0.31-0.28-0.55-0.6-0.72-0.97c-0.18-0.37-0.28-0.76-0.32-1.16C79.13,21.24,79.16,20.84,79.27,20.46z M84.22,22.95l0.6-2.16
				c-0.03-0.36-0.13-0.7-0.32-1.04c-0.19-0.33-0.43-0.63-0.72-0.88c-0.29-0.25-0.6-0.42-0.92-0.51c-0.39-0.11-0.77-0.13-1.12-0.05
				c-0.36,0.08-0.69,0.22-0.99,0.43c-0.3,0.22-0.56,0.48-0.77,0.78s-0.37,0.64-0.47,1c-0.11,0.38-0.14,0.76-0.1,1.14
				c0.04,0.38,0.14,0.74,0.32,1.08c0.17,0.34,0.4,0.63,0.67,0.87s0.6,0.42,0.97,0.52c0.23,0.06,0.49,0.09,0.79,0.06
				s0.58-0.09,0.87-0.19s0.54-0.25,0.75-0.42S84.14,23.19,84.22,22.95z"/>
			<path class="st4" d="M90.12,27.8c-0.36-0.18-0.67-0.44-0.92-0.75c-0.25-0.32-0.42-0.67-0.53-1.07c-0.11-0.39-0.14-0.8-0.1-1.22
				c0.04-0.42,0.16-0.83,0.37-1.23c0.27-0.52,0.62-0.93,1.08-1.24c0.45-0.31,0.94-0.49,1.47-0.54s1.03,0.04,1.51,0.29
				c0.49,0.25,0.87,0.61,1.15,1.07c0.27,0.46,0.42,0.97,0.44,1.52c0.02,0.55-0.1,1.1-0.37,1.63c-0.01,0.02-0.02,0.04-0.03,0.06
				c-0.01,0.02-0.02,0.04-0.03,0.06l-5.08-2.58c-0.21,0.5-0.29,0.99-0.26,1.5s0.17,0.96,0.42,1.37c0.25,0.41,0.59,0.72,1.02,0.94
				c0.43,0.22,0.88,0.31,1.36,0.28c0.48-0.03,0.89-0.17,1.22-0.44L93,27.6c-0.23,0.2-0.5,0.34-0.83,0.43s-0.67,0.11-1.03,0.08
				C90.78,28.07,90.45,27.97,90.12,27.8z M89.18,23.58l4.86,2.47c0.23-0.51,0.33-1.02,0.3-1.51c-0.03-0.49-0.16-0.94-0.41-1.34
				s-0.59-0.72-1.03-0.94c-0.43-0.22-0.89-0.31-1.36-0.27c-0.47,0.04-0.91,0.2-1.32,0.47C89.8,22.72,89.46,23.1,89.18,23.58z"/>
			<path class="st4" d="M97.3,32.33c-0.38-0.29-0.67-0.62-0.89-0.99c-0.22-0.37-0.35-0.79-0.39-1.25l0.24-0.01
				c0.06,0.44,0.19,0.83,0.38,1.17c0.19,0.33,0.46,0.63,0.81,0.9c0.49,0.37,0.97,0.57,1.44,0.59c0.47,0.02,0.84-0.16,1.13-0.53
				c0.18-0.24,0.26-0.48,0.23-0.72c-0.03-0.24-0.14-0.5-0.33-0.78c-0.19-0.28-0.44-0.61-0.75-0.97c-0.27-0.34-0.49-0.64-0.66-0.89
				c-0.17-0.25-0.25-0.49-0.25-0.71c0-0.22,0.09-0.47,0.29-0.73c0.25-0.33,0.54-0.54,0.86-0.62c0.32-0.08,0.65-0.07,0.99,0.04
				c0.34,0.1,0.66,0.27,0.98,0.51c0.4,0.31,0.69,0.64,0.87,0.99s0.24,0.67,0.2,0.96l-0.23-0.05c0.03-0.29-0.05-0.59-0.25-0.9
				s-0.45-0.59-0.77-0.83c-0.27-0.21-0.56-0.36-0.85-0.45c-0.29-0.09-0.57-0.11-0.84-0.04c-0.27,0.07-0.51,0.24-0.73,0.52
				c-0.17,0.22-0.25,0.42-0.24,0.62s0.08,0.4,0.22,0.62s0.34,0.49,0.59,0.79c0.33,0.39,0.6,0.74,0.81,1.06
				c0.21,0.31,0.34,0.61,0.37,0.88s-0.06,0.55-0.28,0.84c-0.33,0.43-0.76,0.65-1.3,0.65C98.4,32.97,97.86,32.75,97.3,32.33z"/>
			<path class="st4" d="M102.18,36.45l4.42-4.39l0.17,0.17l-4.42,4.39L102.18,36.45z M107.74,30.93l0.66-0.65l0.17,0.17l-0.66,0.65
				L107.74,30.93z"/>
			<path class="st4" d="M106.81,42.04c-0.25-0.35-0.42-0.73-0.48-1.13c-0.07-0.41-0.06-0.81,0.03-1.21c0.09-0.4,0.25-0.77,0.47-1.11
				s0.49-0.63,0.82-0.87c0.34-0.25,0.7-0.43,1.1-0.54c0.4-0.12,0.79-0.16,1.19-0.13c0.4,0.03,0.77,0.13,1.12,0.32
				c0.35,0.18,0.65,0.45,0.9,0.79c0.33,0.46,0.5,0.95,0.5,1.46c0,0.51-0.08,1.02-0.25,1.51l1.17-0.86l0.14,0.19l-5.25,3.83
				c-0.44,0.32-0.88,0.48-1.33,0.48c-0.44,0-0.86-0.12-1.25-0.35c-0.39-0.24-0.72-0.55-1-0.93c-0.43-0.59-0.66-1.14-0.68-1.64
				c-0.02-0.5,0.08-0.97,0.29-1.42l0.19,0.14c-0.22,0.48-0.29,0.96-0.2,1.44c0.09,0.48,0.29,0.93,0.59,1.33
				c0.27,0.37,0.58,0.66,0.94,0.87c0.36,0.21,0.73,0.31,1.13,0.31c0.4-0.01,0.79-0.15,1.17-0.43l1.26-0.92
				c-0.49,0.03-0.97-0.05-1.45-0.26C107.47,42.72,107.09,42.42,106.81,42.04z M107.01,41.9c0.17,0.24,0.39,0.44,0.64,0.6
				c0.25,0.16,0.53,0.28,0.82,0.36c0.29,0.08,0.57,0.11,0.83,0.09s0.49-0.08,0.68-0.2l1.81-1.32c0.21-0.31,0.34-0.65,0.41-1.03
				c0.06-0.38,0.06-0.75-0.01-1.11s-0.21-0.69-0.43-0.98c-0.25-0.34-0.54-0.59-0.88-0.75c-0.34-0.16-0.69-0.25-1.06-0.26
				s-0.73,0.04-1.08,0.15c-0.36,0.11-0.67,0.27-0.96,0.48c-0.32,0.23-0.58,0.51-0.78,0.83c-0.21,0.32-0.35,0.67-0.42,1.04
				s-0.08,0.74-0.01,1.1S106.78,41.59,107.01,41.9z"/>
			<path class="st4" d="M112.68,52.23l-0.1-0.22l3.15-1.46c0.82-0.38,1.37-0.77,1.64-1.18c0.27-0.41,0.29-0.86,0.06-1.37
				c-0.17-0.36-0.42-0.68-0.75-0.94c-0.33-0.27-0.7-0.46-1.11-0.58c-0.41-0.12-0.83-0.14-1.25-0.08l-3.57,1.66l-0.1-0.22l5.65-2.62
				l0.1,0.22l-1.46,0.68c0.38,0.02,0.74,0.1,1.1,0.26c0.35,0.15,0.67,0.36,0.95,0.62c0.28,0.26,0.5,0.56,0.65,0.89
				c0.13,0.29,0.2,0.57,0.19,0.82c-0.01,0.26-0.08,0.51-0.23,0.74s-0.37,0.46-0.66,0.68c-0.3,0.22-0.67,0.43-1.11,0.63L112.68,52.23
				z"/>
			<path class="st4" d="M114.57,58.74c-0.1-0.4-0.1-0.79-0.02-1.19c0.08-0.39,0.23-0.76,0.46-1.1c0.23-0.34,0.51-0.63,0.86-0.88
				c0.35-0.25,0.74-0.42,1.17-0.53c0.57-0.14,1.12-0.14,1.64,0.01c0.53,0.14,0.98,0.4,1.37,0.76c0.38,0.36,0.64,0.81,0.77,1.34
				c0.13,0.54,0.11,1.06-0.06,1.57c-0.17,0.51-0.46,0.95-0.87,1.33c-0.41,0.38-0.9,0.64-1.48,0.78c-0.02,0.01-0.04,0.01-0.06,0.02
				c-0.02,0-0.04,0.01-0.06,0.02l-1.35-5.54c-0.51,0.17-0.95,0.42-1.31,0.78c-0.36,0.35-0.61,0.75-0.76,1.21
				c-0.15,0.46-0.17,0.92-0.05,1.38s0.34,0.87,0.67,1.22c0.34,0.35,0.71,0.56,1.13,0.64l0,0.24c-0.3-0.04-0.59-0.16-0.87-0.35
				c-0.28-0.19-0.52-0.43-0.73-0.73S114.66,59.09,114.57,58.74z M117.16,55.27l1.29,5.29c0.54-0.16,0.98-0.42,1.34-0.76
				c0.36-0.34,0.61-0.74,0.75-1.19c0.15-0.45,0.16-0.91,0.04-1.39c-0.12-0.47-0.34-0.88-0.68-1.21c-0.34-0.33-0.74-0.56-1.22-0.7
				C118.21,55.19,117.7,55.17,117.16,55.27z"/>
			<path class="st4" d="M121.99,67.6c-0.07-0.58-0.3-1.07-0.69-1.48c-0.4-0.4-0.91-0.67-1.53-0.79l-3.93,0.29l-0.02-0.24l6.21-0.46
				l0.02,0.24l-1.6,0.12c0.46,0.18,0.84,0.44,1.15,0.79c0.31,0.34,0.5,0.71,0.58,1.12c0.01,0.08,0.03,0.15,0.03,0.22
				c0.01,0.07,0.02,0.12,0.02,0.17L121.99,67.6z"/>
		</g>
		<g>
			<circle class="st3" cx="68.63" cy="69.92" r="51.65"/>
			<path class="st4" d="M29.8,107.46l-0.37,0.33l-1.83-2l0.37-0.33l0.77,0.84l2.53-2.31c-0.08,0.01-0.18,0.01-0.3-0.02
				c-0.12-0.02-0.25-0.06-0.39-0.12c-0.13-0.05-0.26-0.11-0.38-0.18c-0.12-0.07-0.21-0.14-0.28-0.22l0.39-0.36
				c0.08,0.09,0.2,0.17,0.35,0.22c0.15,0.06,0.3,0.11,0.46,0.14c0.16,0.04,0.29,0.06,0.42,0.08s0.19,0.01,0.22,0l0.38,0.41
				l-3.01,2.75L29.8,107.46z"/>
			<path class="st4" d="M31.61,109.9l0.53-0.58l0.35,0.32l-0.53,0.58L31.61,109.9z"/>
			<path class="st4" d="M39.18,115.86c-0.29-0.18-0.52-0.4-0.71-0.66c-0.19-0.25-0.31-0.53-0.36-0.84l0.4-0.2
				c0.08,0.31,0.19,0.57,0.34,0.78c0.15,0.21,0.33,0.39,0.56,0.53c0.27,0.18,0.53,0.27,0.77,0.27c0.24,0,0.43-0.1,0.56-0.31
				c0.09-0.14,0.12-0.27,0.08-0.4c-0.04-0.13-0.12-0.26-0.24-0.41c-0.12-0.15-0.28-0.32-0.46-0.51c-0.2-0.22-0.36-0.42-0.47-0.6
				c-0.12-0.18-0.18-0.35-0.19-0.52c-0.01-0.17,0.04-0.34,0.16-0.53c0.15-0.23,0.33-0.38,0.54-0.46c0.21-0.08,0.44-0.09,0.69-0.04
				c0.25,0.05,0.5,0.16,0.74,0.31c0.27,0.17,0.48,0.37,0.63,0.59c0.15,0.22,0.24,0.45,0.28,0.68l-0.42,0.17
				c-0.03-0.22-0.11-0.43-0.24-0.61c-0.13-0.18-0.3-0.34-0.51-0.47c-0.14-0.09-0.29-0.16-0.45-0.21c-0.15-0.04-0.3-0.05-0.44-0.02
				c-0.14,0.03-0.26,0.13-0.35,0.28c-0.08,0.12-0.11,0.24-0.09,0.35c0.02,0.11,0.08,0.23,0.17,0.36c0.1,0.13,0.22,0.28,0.37,0.45
				c0.22,0.24,0.4,0.46,0.55,0.66c0.15,0.2,0.24,0.39,0.27,0.58s-0.02,0.38-0.15,0.59c-0.21,0.32-0.5,0.5-0.86,0.52
				C39.97,116.24,39.58,116.12,39.18,115.86z"/>
			<path class="st4" d="M45.06,119.14c-0.27-0.13-0.49-0.3-0.67-0.52c-0.18-0.21-0.31-0.45-0.4-0.71c-0.08-0.26-0.11-0.53-0.09-0.81
				s0.09-0.55,0.22-0.82c0.17-0.35,0.4-0.63,0.7-0.84c0.3-0.21,0.63-0.34,1-0.38c0.37-0.04,0.73,0.03,1.09,0.2
				c0.37,0.18,0.65,0.42,0.84,0.73c0.19,0.31,0.3,0.65,0.32,1.01s-0.05,0.72-0.22,1.06c-0.02,0.04-0.04,0.07-0.05,0.11
				c-0.02,0.04-0.03,0.06-0.05,0.08l-3.22-1.55c-0.1,0.28-0.14,0.55-0.12,0.82c0.03,0.27,0.11,0.52,0.26,0.73
				c0.15,0.22,0.34,0.39,0.58,0.5c0.25,0.12,0.51,0.17,0.79,0.15c0.28-0.02,0.51-0.11,0.69-0.27l0.37,0.32
				c-0.16,0.14-0.36,0.25-0.59,0.31c-0.23,0.07-0.47,0.09-0.72,0.07S45.3,119.26,45.06,119.14z M44.69,116.36l2.78,1.33
				c0.11-0.28,0.15-0.55,0.12-0.82s-0.12-0.51-0.27-0.72s-0.34-0.38-0.59-0.5s-0.5-0.17-0.75-0.15c-0.26,0.02-0.5,0.1-0.73,0.25
				C45.03,115.9,44.84,116.1,44.69,116.36z"/>
			<path class="st4" d="M56.03,123.03l-0.52-0.16l0.66-2.22c0.14-0.46,0.17-0.82,0.08-1.09s-0.27-0.44-0.56-0.52
				c-0.3-0.09-0.6-0.06-0.9,0.08c-0.3,0.14-0.55,0.37-0.75,0.67l-0.72,2.42l-0.52-0.16l0.66-2.22c0.14-0.47,0.17-0.83,0.09-1.09
				c-0.08-0.26-0.27-0.43-0.56-0.52c-0.3-0.09-0.6-0.06-0.9,0.07c-0.3,0.14-0.55,0.36-0.75,0.67l-0.72,2.43l-0.52-0.15l1.19-3.98
				l0.48,0.14l-0.27,0.91c0.26-0.26,0.55-0.43,0.86-0.52c0.31-0.09,0.63-0.09,0.95,0.01c0.33,0.1,0.57,0.27,0.72,0.52
				c0.15,0.25,0.2,0.53,0.16,0.85c0.28-0.28,0.58-0.47,0.89-0.56c0.31-0.1,0.63-0.1,0.96,0c0.22,0.07,0.4,0.17,0.53,0.29
				s0.22,0.28,0.27,0.46s0.06,0.38,0.04,0.6c-0.02,0.22-0.07,0.46-0.14,0.72L56.03,123.03z"/>
			<path class="st4" d="M61.4,124.01c-0.3-0.04-0.56-0.13-0.8-0.28s-0.44-0.33-0.6-0.55c-0.16-0.22-0.27-0.47-0.34-0.74
				c-0.07-0.27-0.08-0.55-0.04-0.85c0.05-0.38,0.19-0.72,0.41-1.02s0.5-0.52,0.84-0.67c0.34-0.15,0.7-0.2,1.1-0.14
				c0.41,0.05,0.75,0.2,1.03,0.43c0.28,0.23,0.48,0.52,0.61,0.86c0.13,0.34,0.17,0.7,0.12,1.08c-0.01,0.04-0.01,0.08-0.02,0.12
				s-0.01,0.07-0.02,0.09l-3.54-0.47c-0.01,0.3,0.04,0.57,0.14,0.82c0.11,0.25,0.27,0.45,0.47,0.62s0.44,0.26,0.71,0.3
				c0.27,0.04,0.53,0,0.79-0.1c0.26-0.11,0.45-0.26,0.58-0.47l0.45,0.19c-0.11,0.18-0.26,0.34-0.46,0.48
				c-0.2,0.13-0.42,0.23-0.66,0.29C61.93,124.03,61.67,124.04,61.4,124.01z M60.19,121.47l3.05,0.41c0.02-0.3-0.03-0.57-0.14-0.82
				c-0.11-0.24-0.27-0.44-0.48-0.6c-0.21-0.16-0.45-0.26-0.72-0.29c-0.27-0.04-0.52,0-0.76,0.1c-0.24,0.1-0.44,0.25-0.61,0.46
				C60.36,120.93,60.25,121.18,60.19,121.47z"/>
			<path class="st4" d="M68.08,124.48c-0.34-0.01-0.66-0.07-0.95-0.18c-0.29-0.12-0.54-0.29-0.75-0.53l0.23-0.38
				c0.23,0.22,0.46,0.39,0.7,0.49c0.24,0.1,0.49,0.16,0.75,0.16c0.33,0.01,0.59-0.05,0.8-0.18c0.2-0.12,0.31-0.31,0.31-0.55
				c0-0.17-0.04-0.29-0.14-0.38c-0.1-0.09-0.24-0.16-0.42-0.22c-0.18-0.06-0.4-0.12-0.66-0.19c-0.29-0.08-0.53-0.17-0.72-0.26
				s-0.34-0.21-0.43-0.34c-0.1-0.14-0.14-0.31-0.14-0.53c0-0.27,0.08-0.49,0.21-0.67c0.14-0.18,0.33-0.31,0.57-0.4
				c0.24-0.09,0.5-0.13,0.8-0.13c0.32,0.01,0.6,0.06,0.85,0.17c0.24,0.11,0.44,0.25,0.59,0.43l-0.27,0.36
				c-0.15-0.17-0.32-0.3-0.53-0.39s-0.43-0.13-0.68-0.13c-0.17,0-0.33,0.02-0.49,0.06c-0.16,0.04-0.28,0.11-0.38,0.21
				c-0.1,0.1-0.15,0.24-0.15,0.42c0,0.15,0.03,0.26,0.11,0.35s0.18,0.15,0.33,0.21c0.15,0.06,0.33,0.12,0.55,0.19
				c0.31,0.09,0.59,0.18,0.82,0.27s0.41,0.21,0.54,0.35c0.13,0.14,0.19,0.33,0.18,0.58c-0.01,0.39-0.16,0.69-0.45,0.9
				C68.95,124.39,68.56,124.49,68.08,124.48z"/>
			<path class="st4" d="M74.92,123.89c-0.04,0.02-0.1,0.05-0.19,0.11c-0.09,0.05-0.19,0.1-0.32,0.14c-0.12,0.04-0.26,0.07-0.41,0.09
				c-0.15,0.02-0.3,0-0.44-0.05c-0.14-0.05-0.26-0.13-0.35-0.24c-0.09-0.11-0.14-0.26-0.16-0.43l-0.27-2.98l-0.57,0.05l-0.04-0.43
				l0.57-0.05l-0.13-1.4l0.54-0.05l0.13,1.4l0.96-0.09l0.04,0.43l-0.96,0.09l0.26,2.83c0.02,0.15,0.09,0.26,0.19,0.32
				c0.11,0.07,0.22,0.09,0.35,0.08c0.15-0.01,0.28-0.05,0.4-0.11c0.12-0.06,0.19-0.11,0.21-0.13L74.92,123.89z"/>
			<path class="st4" d="M79.7,123.36c-0.29,0.06-0.58,0.06-0.85,0s-0.52-0.17-0.75-0.33c-0.22-0.16-0.41-0.35-0.57-0.59
				s-0.26-0.5-0.32-0.79c-0.08-0.38-0.06-0.74,0.05-1.1c0.11-0.35,0.3-0.65,0.57-0.91c0.27-0.25,0.6-0.42,0.99-0.5
				c0.4-0.08,0.77-0.06,1.11,0.07c0.34,0.13,0.63,0.34,0.87,0.62c0.24,0.28,0.39,0.6,0.47,0.98c0.01,0.04,0.02,0.08,0.02,0.12
				c0.01,0.04,0.01,0.07,0.01,0.09l-3.5,0.72c0.09,0.29,0.22,0.53,0.41,0.72c0.18,0.2,0.4,0.34,0.65,0.43
				c0.25,0.09,0.5,0.1,0.77,0.05c0.27-0.05,0.5-0.17,0.71-0.36c0.21-0.19,0.34-0.4,0.39-0.63l0.49,0.03
				c-0.04,0.21-0.14,0.41-0.28,0.6c-0.14,0.19-0.32,0.36-0.53,0.49C80.21,123.21,79.97,123.31,79.7,123.36z M77.72,121.37l3.02-0.62
				c-0.08-0.29-0.21-0.53-0.4-0.73c-0.18-0.19-0.4-0.33-0.65-0.41c-0.25-0.08-0.51-0.09-0.77-0.04c-0.27,0.05-0.5,0.17-0.69,0.34
				s-0.34,0.38-0.43,0.64C77.71,120.8,77.68,121.07,77.72,121.37z"/>
			<path class="st4" d="M85.66,117.81c-0.34,0.12-0.61,0.32-0.81,0.59c-0.2,0.27-0.3,0.58-0.3,0.93l0.81,2.46l-0.52,0.17l-1.29-3.95
				l0.49-0.16l0.31,0.94c0.05-0.32,0.15-0.61,0.32-0.85s0.38-0.42,0.62-0.53c0.05-0.02,0.09-0.04,0.13-0.05s0.07-0.02,0.1-0.02
				L85.66,117.81z"/>
			<path class="st4" d="M93.25,118.57c-0.09-0.16-0.16-0.33-0.22-0.51c-0.06-0.18-0.1-0.37-0.1-0.58c-0.01-0.2,0.02-0.42,0.1-0.66
				c0.07-0.23,0.2-0.49,0.38-0.76c0.1-0.14,0.2-0.29,0.31-0.44s0.2-0.3,0.29-0.45c0.08-0.15,0.13-0.3,0.15-0.45s-0.01-0.3-0.09-0.44
				c-0.07-0.12-0.16-0.22-0.29-0.29c-0.13-0.08-0.29-0.11-0.46-0.11s-0.37,0.06-0.57,0.17c-0.15,0.08-0.27,0.18-0.37,0.29
				c-0.1,0.11-0.18,0.22-0.24,0.33c-0.06,0.12-0.1,0.22-0.14,0.32c-0.03,0.1-0.06,0.18-0.07,0.25l-0.48-0.16
				c0.01-0.04,0.03-0.12,0.08-0.24s0.11-0.25,0.19-0.4s0.2-0.3,0.34-0.45s0.32-0.29,0.53-0.4c0.29-0.16,0.56-0.24,0.82-0.25
				c0.26-0.01,0.49,0.04,0.69,0.15s0.36,0.27,0.46,0.47c0.11,0.19,0.16,0.38,0.15,0.57c-0.01,0.19-0.04,0.36-0.12,0.54
				c-0.07,0.17-0.16,0.33-0.26,0.48c-0.1,0.15-0.19,0.28-0.27,0.39c-0.16,0.22-0.29,0.43-0.38,0.62c-0.09,0.19-0.15,0.36-0.18,0.51
				c-0.03,0.16-0.04,0.3-0.04,0.43s0.03,0.25,0.07,0.37l2.51-1.38l0.24,0.44L93.25,118.57z"/>
			<path class="st4" d="M100.93,110.96c0.27,0.37,0.44,0.76,0.52,1.15c0.07,0.39,0.04,0.76-0.08,1.11
				c-0.12,0.35-0.34,0.63-0.65,0.86c-0.31,0.23-0.65,0.35-1.01,0.36s-0.72-0.08-1.08-0.26c-0.35-0.19-0.67-0.47-0.94-0.84
				c-0.27-0.38-0.44-0.76-0.51-1.15c-0.07-0.39-0.04-0.76,0.08-1.11c0.12-0.34,0.34-0.63,0.65-0.86s0.65-0.34,1.02-0.36
				s0.73,0.08,1.08,0.27C100.34,110.3,100.65,110.58,100.93,110.96z M100.48,111.28c-0.22-0.3-0.46-0.53-0.73-0.69
				c-0.26-0.16-0.53-0.23-0.8-0.23s-0.52,0.08-0.76,0.25c-0.23,0.17-0.39,0.38-0.47,0.64s-0.09,0.54-0.03,0.84
				c0.06,0.3,0.21,0.6,0.42,0.9s0.46,0.53,0.73,0.68c0.27,0.16,0.54,0.23,0.8,0.23c0.27,0,0.52-0.09,0.75-0.26
				c0.23-0.17,0.39-0.38,0.47-0.64s0.09-0.54,0.03-0.83S100.7,111.58,100.48,111.28z"/>
			<path class="st4" d="M104.76,110.74c-0.13-0.13-0.24-0.28-0.35-0.44c-0.1-0.16-0.19-0.33-0.25-0.53
				c-0.06-0.2-0.08-0.42-0.07-0.66c0.01-0.24,0.07-0.52,0.18-0.83c0.06-0.17,0.12-0.33,0.18-0.5c0.07-0.17,0.12-0.34,0.16-0.51
				c0.04-0.17,0.05-0.33,0.03-0.48c-0.02-0.15-0.09-0.28-0.2-0.41c-0.09-0.1-0.21-0.17-0.36-0.21c-0.15-0.04-0.3-0.04-0.47,0.01
				c-0.17,0.05-0.34,0.15-0.51,0.31c-0.12,0.12-0.22,0.24-0.29,0.37c-0.07,0.13-0.12,0.26-0.14,0.38s-0.04,0.24-0.05,0.34
				s-0.01,0.19-0.01,0.26l-0.51-0.04c0-0.04,0-0.12,0.01-0.25c0.01-0.12,0.04-0.27,0.08-0.44c0.04-0.17,0.12-0.34,0.22-0.53
				s0.24-0.36,0.41-0.52c0.24-0.22,0.48-0.37,0.73-0.45c0.25-0.07,0.48-0.08,0.71-0.03c0.22,0.06,0.41,0.17,0.57,0.33
				c0.15,0.16,0.25,0.33,0.29,0.51c0.04,0.18,0.05,0.36,0.02,0.55c-0.03,0.19-0.07,0.36-0.13,0.53s-0.11,0.32-0.16,0.45
				c-0.1,0.26-0.17,0.49-0.21,0.69c-0.04,0.21-0.06,0.38-0.05,0.54s0.03,0.3,0.07,0.42s0.09,0.24,0.16,0.34l2.08-1.96l0.34,0.36
				L104.76,110.74z"/>
			<path class="st4" d="M110.9,103.55l0.38,0.32l-1.75,2.07l-0.38-0.32l0.73-0.87l-2.62-2.21c0.02,0.07,0.03,0.17,0.02,0.3
				c-0.01,0.12-0.03,0.26-0.07,0.4c-0.04,0.14-0.08,0.27-0.13,0.4c-0.05,0.12-0.11,0.23-0.18,0.31l-0.4-0.34
				c0.08-0.09,0.14-0.22,0.18-0.37c0.04-0.15,0.07-0.31,0.08-0.47c0.02-0.16,0.02-0.3,0.02-0.42s-0.01-0.19-0.02-0.22l0.36-0.43
				l3.11,2.63L110.9,103.55z"/>
		</g>
	</g>
	<g>
		<g>
			<path class="st5" d="M66.03,65.99c0.12,0.03,0.11,0.31-0.04,0.85c-0.29,1.2-0.76,2.28-1.4,3.24c-0.68,1.04-1.52,1.87-2.52,2.49
				c-0.94,0.62-2.05,1.03-3.33,1.22c-1.07,0.17-2.25,0.19-3.54,0.06c-0.07-0.02-0.12-0.04-0.13-0.04c-0.65,0.84-1.3,1.62-1.96,2.31
				c-0.04,0.03-0.08,0.08-0.13,0.14c-0.05,0.06-0.1,0.11-0.15,0.15c-0.05,0.04-0.1,0.09-0.15,0.15c-0.05,0.06-0.1,0.11-0.13,0.14
				c-0.91,0.88-1.82,1.64-2.72,2.28c-1.08,0.77-2.13,1.34-3.15,1.7c-0.47,0.18-1.06,0.34-1.76,0.47c-0.74,0.09-1.35,0.11-1.84,0.05
				c-1.16-0.07-2.31-0.46-3.44-1.17c-0.05-0.04-0.15-0.1-0.29-0.19c-0.02,0.05-0.06,0.15-0.13,0.28c-0.06,0.13-0.12,0.23-0.16,0.3
				c-0.11,0.25-0.18,0.37-0.22,0.37l-0.69-0.27c-0.04-0.02,0.01-0.17,0.15-0.45c0.04-0.09,0.11-0.22,0.21-0.4
				c0.09-0.18,0.15-0.29,0.18-0.34c-0.57-0.46-1.14-1.02-1.71-1.67c-0.44-0.51-0.76-1.04-0.97-1.58c-0.23-0.64-0.3-1.27-0.21-1.88
				c0.08-0.63,0.36-1.21,0.82-1.72c0.38-0.45,0.88-0.82,1.48-1.12c0.95-0.46,2.12-0.71,3.51-0.77c0.55-0.01,1.11-0.01,1.7,0.02
				c0.96-1.72,1.81-3.26,2.58-4.62l1.91-3.5c0.56-1.07,0.86-1.66,0.9-1.77c0.02-0.04,0.08-0.16,0.19-0.38
				c0.11-0.22,0.19-0.39,0.23-0.52l0.37-0.9c0.53-1.42,0.85-2.68,0.95-3.79c0.06-0.6,0.03-1.23-0.1-1.9
				c-0.14-0.61-0.39-1.17-0.77-1.68c-0.35-0.45-0.84-0.81-1.48-1.1c-0.56-0.26-1.17-0.42-1.83-0.47c-0.02,0-0.35-0.01-0.98-0.02
				c-0.02,0-0.15,0-0.4,0.01c-0.25,0.01-0.44,0.03-0.57,0.05l-0.5,0.07l-0.47,0.07c-0.06,0.01-0.37,0.09-0.95,0.23
				c-1.19,0.33-2.4,0.83-3.62,1.5c-1.22,0.69-2.28,1.47-3.17,2.33c-1.05,1.02-1.81,2.07-2.3,3.17c-0.26,0.55-0.46,1.16-0.61,1.84
				c-0.12,0.67-0.17,1.31-0.15,1.93c0.05,1.43,0.43,2.66,1.14,3.68c0.39,0.58,0.85,1.02,1.38,1.34c0.56,0.35,1.17,0.5,1.83,0.44
				c0.13-0.03,0.29-0.06,0.47-0.09c0.18-0.03,0.3-0.05,0.35-0.06c0.04-0.01,0.1-0.01,0.15,0c0.02,0.02-0.01,0.06-0.09,0.12
				c-0.08,0.06-0.2,0.12-0.36,0.18c-0.16,0.06-0.32,0.09-0.49,0.1c-0.72,0.09-1.39-0.05-2.02-0.43c-0.56-0.34-1.05-0.81-1.48-1.43
				c-0.76-1.08-1.17-2.36-1.24-3.82c-0.02-0.66,0.03-1.34,0.16-2.04c0.14-0.7,0.35-1.34,0.61-1.93c0.51-1.15,1.29-2.25,2.34-3.3
				c0.91-0.88,1.99-1.68,3.25-2.41c1.24-0.71,2.48-1.23,3.71-1.58c0.58-0.16,0.9-0.24,0.98-0.25l0.5-0.1l0.5-0.07
				c0.11-0.01,0.22-0.02,0.33-0.03c0.11-0.01,0.23-0.02,0.37-0.03c0.14-0.01,0.24-0.02,0.32-0.03c0.66,0.01,1,0.02,1.04,0.02
				c0.71,0.06,1.38,0.22,2.02,0.49c0.71,0.31,1.27,0.73,1.68,1.25c0.45,0.57,0.75,1.2,0.89,1.91c0.15,0.72,0.19,1.41,0.14,2.07
				c-0.09,1.16-0.41,2.48-0.96,3.95l-0.38,0.96c-0.05,0.13-0.12,0.3-0.23,0.53c-0.11,0.23-0.16,0.35-0.17,0.37
				c-0.06,0.12-0.37,0.73-0.91,1.82l-1.91,3.5c-0.7,1.3-1.49,2.76-2.37,4.39c0.09,0.01,0.19,0.01,0.3,0.02
				c1.94-3.1,3.89-5.95,5.84-8.54c1.59-2.14,3.08-3.95,4.47-5.41c0.93-0.97,1.79-1.78,2.57-2.43c1.13-0.9,2.15-1.51,3.07-1.82
				c0.35-0.1,0.66-0.16,0.92-0.18c0.07-0.01,0.23-0.02,0.47-0.02c0.02,0,0.11,0.02,0.27,0.05c0.07,0.01,0.15,0.03,0.24,0.07
				c0.36,0.12,0.62,0.36,0.79,0.72l0.18,0.45l0.1,0.45c0.13,0.91,0.04,2.1-0.28,3.6c-0.45,1.99-1.21,4.21-2.3,6.65
				c-0.99,2.15-2.11,4.22-3.36,6.21c-0.66,1.03-1.34,2-2.03,2.91c1.21,0.15,2.32,0.14,3.32-0.02c1.24-0.18,2.31-0.56,3.21-1.15
				c0.63-0.39,1.21-0.88,1.73-1.47c0.52-0.59,0.95-1.22,1.3-1.89c0.34-0.67,0.61-1.39,0.8-2.16C65.88,66.24,65.98,65.98,66.03,65.99
				z M38.99,78.7c0.6-1.2,1.61-3.1,3.02-5.71c0.02-0.03,0.35-0.65,0.99-1.84c-0.51,0-0.98,0-1.4,0c-1.3,0.08-2.39,0.34-3.27,0.76
				c-0.53,0.27-0.96,0.59-1.28,0.97c-0.36,0.43-0.58,0.9-0.66,1.4c-0.08,0.52-0.01,1.05,0.21,1.58c0.18,0.47,0.47,0.92,0.85,1.35
				C37.98,77.8,38.49,78.29,38.99,78.7z M52.5,75.55c0.56-0.58,1.11-1.2,1.65-1.87c-0.74-0.15-1.54-0.35-2.39-0.6
				c-0.55-0.17-1.11-0.35-1.66-0.54c-0.09-0.03-0.64-0.19-1.66-0.49c-1.49-0.39-2.83-0.65-4.02-0.78c-0.58,0.91-1.14,1.8-1.69,2.69
				c-0.31,0.51-0.51,0.74-0.58,0.7c-0.09-0.04,0.02-0.32,0.34-0.82c0.5-0.84,1.04-1.71,1.6-2.62c-0.04,0-0.08-0.01-0.14-0.01
				c-0.05,0-0.09-0.01-0.11-0.01c-0.06,0.1-0.16,0.28-0.29,0.51c-0.13,0.24-0.23,0.43-0.31,0.57c-0.07,0.14-0.16,0.31-0.27,0.51
				c-0.11,0.2-0.2,0.38-0.29,0.54c-1.41,2.67-2.42,4.63-3.03,5.88c0.12,0.08,0.23,0.16,0.34,0.22c1.05,0.63,2.09,0.97,3.13,1.04
				c0.44,0.05,0.98,0.03,1.65-0.06c0.67-0.13,1.21-0.28,1.62-0.45c0.94-0.35,1.92-0.89,2.95-1.64c0.87-0.61,1.74-1.35,2.61-2.24
				c0.06-0.05,0.16-0.15,0.3-0.29S52.48,75.56,52.5,75.55z M54.45,73.29c0.79-0.98,1.56-2.04,2.3-3.19
				c1.25-1.93,2.36-3.96,3.35-6.07c1.12-2.38,1.9-4.54,2.36-6.48c0.31-1.42,0.4-2.54,0.29-3.35c-0.01-0.06-0.03-0.13-0.05-0.22
				c-0.02-0.09-0.03-0.15-0.03-0.17c-0.02-0.02-0.04-0.08-0.07-0.17c-0.03-0.09-0.05-0.16-0.07-0.2c-0.11-0.21-0.27-0.36-0.49-0.45
				c-0.05-0.02-0.11-0.04-0.16-0.04c-0.02,0-0.05-0.01-0.08-0.02c-0.04-0.01-0.06-0.02-0.08-0.02c-0.22,0-0.36,0-0.41,0
				c-0.2,0.02-0.46,0.07-0.78,0.16c-0.86,0.28-1.84,0.84-2.93,1.69c-0.78,0.62-1.62,1.4-2.54,2.35c-1.39,1.45-2.89,3.22-4.5,5.33
				c-1.95,2.54-3.9,5.32-5.85,8.34c1.14,0.16,2.42,0.43,3.83,0.82c1.04,0.3,1.6,0.47,1.69,0.51c0.55,0.19,1.1,0.37,1.66,0.54
				C52.82,72.94,53.68,73.15,54.45,73.29z"/>
			<path class="st5" d="M72.11,66.48c0.07,0.06,0.07,0.13,0.01,0.22c-1.19,1.39-2.35,2.5-3.49,3.35c-0.87,0.61-1.64,0.99-2.31,1.14
				c-0.21,0.06-0.44,0.08-0.69,0.08c-0.29-0.02-0.52-0.07-0.7-0.14c-0.27-0.08-0.5-0.2-0.68-0.38c-0.19-0.18-0.33-0.41-0.41-0.69
				c-0.02-0.02-0.03-0.06-0.04-0.11l0-0.05c-0.08-0.41-0.04-0.88,0.11-1.42c0.14-0.41,0.33-0.8,0.56-1.16
				c0.5-0.78,1.09-1.41,1.76-1.89c0.23-0.15,0.43-0.25,0.6-0.31c0.13-0.06,0.28-0.08,0.45-0.05c0.17,0.03,0.3,0.11,0.38,0.25
				c0.06,0.11,0.09,0.26,0.08,0.44c-0.01,0.11-0.04,0.23-0.08,0.35c-0.05,0.2-0.14,0.4-0.27,0.61c-0.42,0.72-1.01,1.3-1.78,1.75
				c-0.08,0.07-0.14,0.06-0.19-0.01s-0.03-0.14,0.07-0.19c0.68-0.48,1.19-1.06,1.53-1.75c0.11-0.19,0.17-0.37,0.2-0.53
				c0.03-0.09,0.04-0.17,0.05-0.24c0-0.05,0-0.1-0.02-0.14c-0.03-0.04-0.07-0.06-0.1-0.06c-0.04,0.02-0.08,0.03-0.14,0.04
				c-0.13,0.06-0.29,0.16-0.46,0.29c-0.58,0.45-1.08,1.04-1.48,1.78c-0.17,0.33-0.31,0.68-0.41,1.04c-0.1,0.41-0.12,0.75-0.05,1.01
				c0,0.02,0,0.04,0.01,0.06c0.01,0.02,0.01,0.04,0.01,0.06c0.07,0.28,0.26,0.48,0.56,0.59c0.12,0.05,0.28,0.09,0.48,0.12
				c0.2,0.02,0.37,0.01,0.52-0.01c0.61-0.1,1.32-0.4,2.12-0.9c1.17-0.77,2.38-1.8,3.61-3.09C71.97,66.44,72.04,66.42,72.11,66.48z"
				/>
			<path class="st5" d="M79.83,67.1c0.06,0.07,0.04,0.14-0.06,0.23c-0.49,0.46-1.27,1.14-2.32,2.04c-1.06,0.89-1.88,1.54-2.48,1.97
				c-0.13,0.08-0.25,0.15-0.35,0.22c-0.09,0.05-0.16,0.08-0.2,0.09c-0.08,0.05-0.18,0.1-0.31,0.14c-0.05,0.01-0.1,0.02-0.14,0.02
				c-0.07,0.01-0.12,0.02-0.14,0.02c-0.02,0-0.04,0-0.07,0s-0.05-0.01-0.07-0.03l-0.08-0.03l-0.05-0.03
				c-0.14-0.12-0.2-0.3-0.18-0.53c-0.02-0.02-0.01-0.13,0.02-0.33l0.04-0.22c0.03-0.13,0.06-0.26,0.11-0.4
				c0.07-0.23,0.16-0.49,0.28-0.77c0.29-0.71,0.66-1.51,1.09-2.41c-0.08,0.07-0.16,0.13-0.24,0.2c-0.16,0.13-0.33,0.3-0.53,0.51
				c-0.28,0.27-0.62,0.64-1.02,1.1c-0.1,0.1-0.3,0.33-0.6,0.68c-0.3,0.35-0.56,0.65-0.78,0.89c-0.22,0.24-0.45,0.47-0.68,0.69
				l-0.12,0.07c-0.02,0.04-0.06,0.07-0.12,0.1c-0.12,0.08-0.2,0.13-0.26,0.14c-0.17,0.1-0.33,0.12-0.47,0.07
				c-0.09-0.02-0.16-0.07-0.21-0.13c-0.03-0.06-0.06-0.13-0.09-0.23c-0.02-0.15-0.01-0.34,0.04-0.57c0.03-0.14,0.07-0.29,0.12-0.46
				c0.04-0.09,0.09-0.21,0.14-0.37c0.07-0.2,0.17-0.43,0.3-0.72c0.24-0.57,0.73-1.54,1.46-2.93c0.02-0.05,0.05-0.07,0.09-0.05
				l0.63,0.35c0.04,0.02,0.04,0.06,0.02,0.11c-0.74,1.24-1.26,2.18-1.56,2.81c-0.13,0.26-0.24,0.48-0.33,0.66
				c-0.06,0.14-0.11,0.26-0.14,0.35l-0.1,0.24c0,0.05-0.01,0.09-0.01,0.11c-0.02,0.05-0.02,0.09,0.02,0.11
				c0.04,0,0.08-0.01,0.11-0.05l0.06-0.02l0-0.03l0.06-0.02c0.22-0.18,0.92-0.88,2.11-2.08c0.44-0.46,0.79-0.82,1.07-1.07
				c0.24-0.2,0.43-0.37,0.59-0.5c0.27-0.2,0.48-0.33,0.63-0.39c0-0.02,0.01-0.04,0.03-0.05c0.02-0.05,0.05-0.07,0.09-0.05l0.63,0.35
				c0.04,0,0.04,0.03,0.02,0.08c-0.59,1.05-1.07,1.97-1.42,2.77c-0.11,0.27-0.2,0.5-0.27,0.72c-0.05,0.12-0.09,0.24-0.14,0.35
				l-0.04,0.19l0,0.05C74,71.1,74,71.14,74.02,71.15c0.02,0.02,0.05,0.02,0.11,0.01c0.02-0.02,0.04-0.03,0.06-0.04
				c0.02-0.01,0.07-0.03,0.14-0.06c0.1-0.07,0.21-0.13,0.34-0.19c0.6-0.39,1.44-1,2.53-1.83c1.13-0.88,1.93-1.52,2.4-1.92
				C79.69,67.03,79.77,67.03,79.83,67.1z"/>
			<path class="st5" d="M84.98,67.48c0.06,0.06,0.04,0.14-0.06,0.24c-0.74,0.78-1.5,1.53-2.28,2.24c-0.47,0.42-0.89,0.77-1.26,1.05
				c-0.52,0.4-1,0.7-1.41,0.91c-0.32,0.16-0.6,0.25-0.84,0.29c-0.17,0.02-0.34,0.02-0.52-0.01c-0.21-0.07-0.38-0.2-0.49-0.39
				c-0.13-0.25-0.17-0.58-0.14-1c0.04-0.25,0.1-0.53,0.17-0.84c0.27-0.87,0.71-1.89,1.33-3.05c0.04-0.07,0.08-0.09,0.11-0.07
				l0.6,0.38c0.04,0.02,0.04,0.06,0.02,0.11c-0.63,1.08-1.1,2.02-1.4,2.82c-0.09,0.28-0.16,0.54-0.2,0.75
				c-0.04,0.27-0.03,0.46,0.04,0.58c0.01,0.06,0.05,0.1,0.1,0.12c0.11,0.03,0.21,0.03,0.3,0.02c0.18-0.02,0.41-0.1,0.67-0.22
				c0.68-0.31,1.56-0.9,2.63-1.77c0.84-0.67,1.63-1.36,2.38-2.09C84.84,67.44,84.92,67.42,84.98,67.48z M81.22,65.55L80.7,66.3
				l-0.73-0.52l0.53-0.75L81.22,65.55z"/>
			<path class="st5" d="M90.79,67.9c0.09,0.03,0.11,0.11,0.06,0.25c-0.19,0.55-0.52,1.02-0.99,1.4c-0.45,0.35-0.99,0.56-1.64,0.64
				c-0.64,0.06-1.33,0.17-2.05,0.33c0.04,0.21,0.05,0.41,0.04,0.61c-0.05,0.62-0.27,1.19-0.68,1.73c-0.41,0.53-0.91,0.91-1.51,1.12
				c-0.02,0-0.04,0-0.07,0.01c-0.03,0.01-0.05,0.01-0.08,0.02c-0.03,0.01-0.05,0.01-0.07,0.01c-0.35,0.06-0.69,0.06-1.01-0.02
				c-0.32-0.08-0.62-0.23-0.9-0.45l-0.18-0.15c-0.04-0.04-0.09-0.11-0.18-0.21c-0.02-0.02-0.07-0.1-0.15-0.23
				c-0.06-0.13-0.09-0.23-0.09-0.28c-0.06-0.21-0.05-0.42,0.02-0.63c0.09-0.17,0.19-0.32,0.31-0.44c0.33-0.32,0.87-0.62,1.6-0.89
				c0.47-0.17,1.01-0.32,1.62-0.45c0.09-0.03,0.28-0.07,0.56-0.12L85.37,70c-0.05-0.09-0.1-0.21-0.17-0.34
				c-0.27-0.51-0.48-1.06-0.64-1.64c-0.13-0.61-0.18-1.19-0.14-1.74c0.03-0.33,0.08-0.61,0.18-0.86c0.07-0.18,0.15-0.32,0.25-0.42
				c0.12-0.16,0.26-0.25,0.43-0.3c0.17-0.06,0.34-0.06,0.52,0.01c0.21,0.07,0.36,0.19,0.44,0.36c0.06,0.15,0.07,0.32,0.01,0.52
				c-0.04,0.12-0.11,0.27-0.2,0.42c-0.21,0.39-0.58,0.82-1.09,1.31c0.04,0.2,0.08,0.39,0.12,0.56c0.16,0.52,0.38,1.01,0.66,1.45
				c0.14,0.27,0.25,0.49,0.3,0.68c0.76-0.12,1.48-0.21,2.16-0.24c0.55-0.05,1.04-0.21,1.46-0.49c0.43-0.33,0.73-0.74,0.92-1.22
				C90.63,67.95,90.7,67.9,90.79,67.9z M85.5,71.08c0.01-0.13,0.01-0.26,0-0.41c-0.26,0.05-0.43,0.09-0.5,0.13
				c-0.6,0.16-1.12,0.32-1.57,0.51c-0.6,0.25-1.03,0.5-1.29,0.78c-0.06,0.05-0.11,0.13-0.15,0.23c-0.01,0.07,0,0.13,0.01,0.17
				c0.03,0.15,0.15,0.3,0.37,0.47c0.38,0.29,0.79,0.37,1.24,0.26c0.08-0.03,0.13-0.04,0.17-0.04c0.43-0.13,0.82-0.39,1.16-0.79
				C85.28,71.99,85.47,71.56,85.5,71.08z M84.89,66.32c0,0.22,0.01,0.45,0.03,0.69c0.4-0.43,0.68-0.81,0.86-1.14
				c0.15-0.3,0.19-0.51,0.13-0.62c-0.03-0.08-0.1-0.13-0.22-0.17c-0.12-0.04-0.21-0.04-0.29-0.01c-0.17,0.06-0.29,0.22-0.37,0.49
				C84.95,65.78,84.91,66.03,84.89,66.32z"/>
			<path class="st5" d="M96.89,68.4c0.07,0.06,0.07,0.13,0.01,0.22c-1.18,1.39-2.35,2.5-3.49,3.35c-0.87,0.61-1.64,0.99-2.31,1.14
				c-0.21,0.06-0.44,0.09-0.69,0.08c-0.29-0.02-0.52-0.07-0.7-0.14c-0.27-0.08-0.5-0.2-0.68-0.38s-0.33-0.41-0.41-0.69
				c-0.02-0.02-0.03-0.06-0.05-0.11l0-0.05c-0.08-0.41-0.04-0.88,0.11-1.42c0.14-0.41,0.33-0.8,0.56-1.16
				c0.5-0.78,1.09-1.41,1.76-1.89c0.23-0.15,0.43-0.25,0.6-0.31c0.13-0.06,0.28-0.08,0.46-0.05c0.17,0.03,0.3,0.11,0.38,0.25
				c0.07,0.11,0.09,0.26,0.08,0.44c-0.01,0.11-0.04,0.23-0.08,0.35c-0.05,0.2-0.14,0.4-0.27,0.61c-0.42,0.72-1.01,1.3-1.78,1.75
				c-0.08,0.07-0.14,0.06-0.19-0.01c-0.05-0.08-0.03-0.14,0.07-0.19c0.67-0.48,1.19-1.06,1.53-1.75c0.11-0.19,0.17-0.37,0.2-0.53
				c0.03-0.09,0.04-0.17,0.05-0.24c0-0.05,0-0.1-0.02-0.14c-0.03-0.04-0.07-0.06-0.1-0.06c-0.04,0.02-0.08,0.03-0.14,0.04
				c-0.13,0.06-0.29,0.16-0.46,0.29c-0.58,0.45-1.08,1.04-1.48,1.78c-0.17,0.33-0.31,0.68-0.41,1.04c-0.1,0.41-0.12,0.75-0.05,1.01
				c0,0.02,0,0.04,0.01,0.06s0.01,0.04,0.01,0.06c0.07,0.28,0.26,0.48,0.56,0.59c0.12,0.05,0.29,0.09,0.48,0.12
				c0.2,0.02,0.37,0.01,0.52-0.01c0.61-0.1,1.32-0.4,2.12-0.91c1.17-0.77,2.38-1.8,3.61-3.09C96.76,68.35,96.83,68.34,96.89,68.4z"
				/>
			<path class="st5" d="M102.73,68.82c0.09,0.03,0.11,0.11,0.06,0.25c-0.19,0.55-0.52,1.02-0.99,1.4c-0.45,0.35-0.99,0.56-1.64,0.64
				c-0.64,0.06-1.33,0.17-2.05,0.33c0.04,0.21,0.05,0.41,0.04,0.61c-0.05,0.62-0.27,1.2-0.68,1.73c-0.41,0.53-0.91,0.91-1.51,1.12
				c-0.02,0-0.04,0-0.07,0.01s-0.06,0.01-0.08,0.02c-0.03,0.01-0.05,0.01-0.07,0.01c-0.35,0.06-0.69,0.06-1.01-0.02
				c-0.32-0.08-0.62-0.23-0.9-0.45l-0.18-0.15c-0.04-0.04-0.09-0.11-0.18-0.21c-0.02-0.02-0.07-0.1-0.15-0.23
				c-0.06-0.13-0.09-0.23-0.09-0.28c-0.06-0.21-0.05-0.42,0.02-0.63c0.09-0.18,0.19-0.32,0.31-0.44c0.33-0.32,0.87-0.62,1.6-0.89
				c0.47-0.17,1.01-0.32,1.62-0.45c0.09-0.03,0.28-0.07,0.56-0.12l-0.04-0.14c-0.05-0.1-0.1-0.21-0.17-0.34
				c-0.27-0.51-0.48-1.06-0.64-1.64c-0.14-0.61-0.18-1.19-0.14-1.74c0.03-0.33,0.08-0.61,0.18-0.86c0.07-0.18,0.15-0.32,0.25-0.42
				c0.12-0.16,0.27-0.25,0.43-0.3c0.17-0.06,0.34-0.06,0.52,0.01c0.21,0.07,0.36,0.19,0.44,0.36c0.06,0.15,0.07,0.32,0.01,0.52
				c-0.05,0.12-0.11,0.27-0.2,0.42c-0.21,0.39-0.58,0.82-1.09,1.31c0.04,0.21,0.08,0.39,0.12,0.56c0.16,0.52,0.38,1.01,0.66,1.45
				c0.14,0.27,0.25,0.49,0.3,0.68c0.76-0.12,1.48-0.21,2.16-0.24c0.55-0.05,1.04-0.21,1.46-0.49c0.43-0.33,0.73-0.74,0.92-1.22
				C102.57,68.88,102.63,68.82,102.73,68.82z M97.44,72c0.01-0.13,0.01-0.26,0-0.41c-0.26,0.05-0.43,0.1-0.5,0.13
				c-0.6,0.16-1.12,0.32-1.58,0.51c-0.6,0.25-1.03,0.5-1.29,0.78c-0.06,0.05-0.11,0.13-0.16,0.23c-0.01,0.07,0,0.13,0.01,0.17
				c0.03,0.15,0.15,0.3,0.38,0.47c0.38,0.29,0.79,0.37,1.24,0.26c0.08-0.03,0.13-0.04,0.17-0.04c0.43-0.13,0.82-0.39,1.16-0.79
				C97.21,72.91,97.4,72.48,97.44,72z M96.82,67.24c0,0.22,0.01,0.45,0.03,0.69c0.4-0.43,0.68-0.81,0.86-1.14
				c0.15-0.3,0.19-0.51,0.13-0.62c-0.03-0.08-0.11-0.13-0.22-0.17c-0.12-0.04-0.21-0.04-0.29-0.01c-0.17,0.06-0.29,0.22-0.37,0.49
				C96.89,66.7,96.84,66.95,96.82,67.24z"/>
		</g>
		<g>
			<g>
				<path class="st6" d="M45.87,90.84c-0.01,0.07-0.11,0.42-0.29,1.05c-0.18,0.63-0.34,1.14-0.46,1.51
					c-0.28,0.83-0.51,1.35-0.69,1.56c-0.15,0.16-0.32,0.24-0.53,0.24c-0.25,0-0.45-0.12-0.58-0.37c-0.04-0.07-0.06-0.15-0.06-0.24
					c0-0.09,0.07-0.27,0.2-0.56c0.35-0.73,0.82-2.17,1.4-4.32c0.23-0.85,0.39-1.43,0.47-1.74l0.21-0.83
					c0.14-0.55,0.22-0.92,0.24-1.12s0.01-0.34-0.04-0.42c-0.05-0.08-0.1-0.14-0.17-0.19s-0.12-0.08-0.17-0.11
					c-0.05-0.03-0.08-0.09-0.07-0.17c0.01-0.08,0.05-0.16,0.11-0.23c0.06-0.07,0.15-0.13,0.24-0.18c0.2-0.09,0.4-0.14,0.6-0.14
					c0.2,0,0.36,0.02,0.48,0.07s0.21,0.12,0.29,0.2c0.16,0.17,0.23,0.34,0.21,0.51c-0.04,0.34-0.09,0.63-0.15,0.88
					c0.78-1.1,1.58-1.66,2.41-1.66c0.76,0,1.27,0.39,1.52,1.18c0.09,0.28,0.13,0.61,0.13,1s-0.06,0.79-0.18,1.19
					c-0.12,0.4-0.28,0.77-0.49,1.13c-0.2,0.35-0.44,0.68-0.71,0.98s-0.56,0.56-0.86,0.78c-0.64,0.46-1.24,0.69-1.81,0.69
					C46.58,91.54,46.15,91.3,45.87,90.84z M46.89,88c-0.16,0.31-0.29,0.62-0.39,0.93c-0.1,0.31-0.15,0.59-0.15,0.85
					c0,0.26,0.06,0.47,0.17,0.64c0.11,0.17,0.27,0.25,0.49,0.25s0.43-0.06,0.65-0.18c0.21-0.12,0.42-0.28,0.62-0.48
					c0.2-0.2,0.39-0.43,0.56-0.7c0.18-0.27,0.33-0.55,0.46-0.85c0.28-0.66,0.42-1.28,0.42-1.87c0-0.32-0.04-0.57-0.13-0.74
					c-0.08-0.18-0.21-0.27-0.39-0.27c-0.18,0-0.36,0.07-0.55,0.2c-0.19,0.13-0.39,0.31-0.6,0.54c-0.21,0.22-0.41,0.48-0.62,0.77
					C47.24,87.39,47.06,87.69,46.89,88z"/>
				<path class="st6" d="M52.79,91.02c-0.19-0.18-0.33-0.4-0.44-0.67s-0.16-0.59-0.17-0.97c0-0.37,0.04-0.75,0.14-1.13
					c0.1-0.38,0.23-0.75,0.41-1.1c0.17-0.36,0.39-0.69,0.63-1c0.25-0.31,0.52-0.58,0.81-0.81c0.65-0.5,1.32-0.75,2.01-0.75
					c0.91,0,1.53,0.4,1.86,1.2c0.23,0.58,0.24,1.28,0.04,2.11c-0.19,0.76-0.53,1.45-1.02,2.09c-0.49,0.63-1.07,1.08-1.74,1.35
					c-0.34,0.13-0.67,0.2-0.99,0.2c-0.33,0-0.62-0.04-0.87-0.13S52.98,91.2,52.79,91.02z M54.06,87.79
					c-0.13,0.33-0.24,0.67-0.32,1.01s-0.11,0.67-0.11,0.98c0,0.31,0.05,0.55,0.14,0.72c0.09,0.18,0.24,0.26,0.44,0.26
					c0.2,0,0.4-0.07,0.6-0.21s0.39-0.33,0.58-0.56s0.36-0.5,0.53-0.8c0.16-0.3,0.31-0.62,0.43-0.94c0.27-0.71,0.4-1.35,0.39-1.9
					c0-0.49-0.1-0.8-0.3-0.93c-0.08-0.05-0.19-0.08-0.34-0.08s-0.31,0.07-0.5,0.2c-0.19,0.13-0.37,0.31-0.56,0.53
					c-0.19,0.22-0.37,0.48-0.54,0.78S54.2,87.46,54.06,87.79z"/>
				<path class="st6" d="M59.2,91.31c-0.09-0.07-0.16-0.14-0.21-0.22c-0.05-0.08-0.08-0.15-0.09-0.21c0-0.06,0.01-0.13,0.04-0.22
					c0.03-0.09,0.07-0.19,0.12-0.32c0.9-2.23,1.36-3.72,1.36-4.48c-0.01-0.21-0.09-0.36-0.22-0.45l-0.13-0.09
					C60.02,85.28,60,85.23,60,85.15c0-0.08,0.03-0.15,0.08-0.22c0.06-0.07,0.13-0.13,0.23-0.19c0.19-0.1,0.39-0.15,0.59-0.15
					c0.2,0,0.36,0.02,0.47,0.07c0.11,0.04,0.21,0.1,0.29,0.18c0.17,0.16,0.25,0.33,0.26,0.5c0,0.18-0.02,0.36-0.06,0.54
					c-0.04,0.18-0.09,0.36-0.15,0.54s-0.12,0.34-0.17,0.5s-0.1,0.27-0.11,0.35c-0.04,0.16-0.05,0.25-0.04,0.29
					c0.11-0.09,0.17-0.18,0.19-0.27l0.26-0.49c0.58-1.04,1.14-1.72,1.69-2.06c0.16-0.09,0.35-0.14,0.58-0.14
					c0.22,0,0.4,0.08,0.54,0.24c0.14,0.16,0.21,0.33,0.22,0.52s-0.01,0.35-0.04,0.48s-0.08,0.25-0.15,0.36
					c-0.15,0.25-0.32,0.37-0.53,0.37c-0.06,0-0.11-0.02-0.16-0.06l-0.15-0.13c-0.15-0.13-0.29-0.19-0.42-0.19s-0.3,0.09-0.49,0.27
					c-0.19,0.18-0.39,0.41-0.6,0.68c-0.7,0.93-1.27,1.96-1.72,3.11L60.3,91c-0.08,0.19-0.14,0.33-0.2,0.41s-0.14,0.12-0.26,0.12
					c-0.11,0-0.23-0.02-0.34-0.06C59.39,91.43,59.29,91.38,59.2,91.31z"/>
				<path class="st6" d="M68.6,89.73c0.13,0,0.19,0.09,0.19,0.26c0,0.15-0.04,0.29-0.13,0.42c-0.12,0.26-0.36,0.5-0.72,0.73
					c-0.41,0.26-0.82,0.39-1.23,0.39c-0.71,0-1.17-0.32-1.36-0.96c-0.23-0.76,0.11-2.37,1.02-4.82c-0.51-0.04-0.79-0.13-0.83-0.27
					c-0.01-0.04-0.02-0.08-0.02-0.13c0-0.05,0.02-0.1,0.06-0.16c0.04-0.06,0.1-0.12,0.16-0.18c0.16-0.13,0.31-0.19,0.47-0.19h0.53
					c0.48-1.12,0.82-1.76,1.02-1.92c0.1-0.07,0.21-0.11,0.33-0.11s0.22,0.02,0.3,0.05c0.08,0.03,0.15,0.08,0.21,0.13
					c0.14,0.13,0.21,0.28,0.21,0.45c0,0.09-0.03,0.19-0.08,0.31l-0.49,1.07h0.16c0.27,0,0.5,0,0.67-0.01l0.38-0.01
					c0.08,0,0.19-0.01,0.32-0.01c0.13,0,0.19,0.05,0.19,0.14c0,0.58-0.69,0.88-2.07,0.88h-0.05l-0.45,1.17
					c-0.51,1.38-0.76,2.35-0.76,2.91c0,0.16,0.04,0.28,0.11,0.36c0.07,0.09,0.2,0.13,0.4,0.13c0.2,0,0.37-0.03,0.53-0.1
					c0.16-0.07,0.3-0.14,0.42-0.22c0.12-0.08,0.22-0.16,0.31-0.22S68.54,89.73,68.6,89.73z"/>
				<path class="st6" d="M68.87,92.93c0-0.09,0.07-0.28,0.21-0.56c0.14-0.28,0.29-0.63,0.46-1.06c0.17-0.43,0.32-0.88,0.47-1.34
					s0.3-0.96,0.46-1.5l0.52-1.75l-0.69,0.19c-0.17,0-0.32-0.09-0.43-0.27c-0.03-0.05-0.04-0.11-0.04-0.17s0.05-0.15,0.16-0.24
					s0.24-0.18,0.39-0.26c0.31-0.16,0.63-0.28,0.96-0.37l0.06-0.19c0.12-0.37,0.23-0.76,0.34-1.16s0.22-0.79,0.35-1.17
					c0.12-0.38,0.26-0.74,0.42-1.09c0.15-0.34,0.34-0.64,0.54-0.9c0.46-0.56,1.04-0.84,1.74-0.84c0.51,0,0.92,0.14,1.22,0.41
					c0.3,0.27,0.45,0.65,0.45,1.12c0,0.49-0.14,0.91-0.42,1.27c-0.23,0.3-0.5,0.45-0.79,0.45c-0.36,0-0.6-0.16-0.73-0.49
					c-0.04-0.08-0.05-0.16-0.05-0.21c0-0.1,0.07-0.19,0.2-0.27c0.24-0.19,0.41-0.43,0.51-0.75c0.03-0.1,0.05-0.19,0.05-0.29
					c0-0.36-0.14-0.55-0.43-0.55c-0.39,0-0.75,0.44-1.08,1.32c-0.1,0.27-0.2,0.57-0.29,0.89l-0.62,2.12c0.4-0.06,0.7-0.09,0.88-0.09
					c0.18,0,0.35,0.02,0.49,0.06c0.14,0.04,0.27,0.1,0.38,0.18c0.26,0.17,0.39,0.39,0.39,0.64s-0.12,0.38-0.37,0.38l-0.84-0.03
					c-0.46,0-0.89,0.02-1.28,0.06l-0.54,1.93c-0.36,1.31-0.65,2.26-0.87,2.85c-0.22,0.59-0.44,1.1-0.66,1.51
					c-0.2,0.38-0.5,0.56-0.91,0.56S68.87,93.2,68.87,92.93z"/>
				<path class="st6" d="M75.59,91.02c-0.19-0.18-0.33-0.4-0.44-0.67s-0.16-0.59-0.17-0.97c0-0.37,0.04-0.75,0.14-1.13
					c0.1-0.38,0.23-0.75,0.41-1.1c0.17-0.36,0.39-0.69,0.63-1c0.25-0.31,0.52-0.58,0.81-0.81c0.65-0.5,1.32-0.75,2.01-0.75
					c0.91,0,1.53,0.4,1.85,1.2c0.23,0.58,0.24,1.28,0.04,2.11c-0.19,0.76-0.53,1.45-1.02,2.09c-0.49,0.63-1.07,1.08-1.74,1.35
					c-0.34,0.13-0.67,0.2-0.99,0.2c-0.33,0-0.62-0.04-0.87-0.13S75.78,91.2,75.59,91.02z M76.86,87.79
					c-0.13,0.33-0.24,0.67-0.32,1.01c-0.08,0.35-0.11,0.67-0.11,0.98c0,0.31,0.05,0.55,0.14,0.72c0.09,0.18,0.24,0.26,0.44,0.26
					s0.4-0.07,0.6-0.21c0.2-0.14,0.39-0.33,0.57-0.56c0.19-0.23,0.36-0.5,0.53-0.8s0.31-0.62,0.43-0.94c0.27-0.71,0.4-1.35,0.39-1.9
					c0-0.49-0.1-0.8-0.3-0.93c-0.08-0.05-0.19-0.08-0.34-0.08c-0.14,0-0.31,0.07-0.5,0.2c-0.19,0.13-0.37,0.31-0.56,0.53
					c-0.19,0.22-0.37,0.48-0.54,0.78S77,87.46,76.86,87.79z"/>
				<path class="st6" d="M82.3,91.2c-0.11-0.12-0.2-0.26-0.27-0.44s-0.1-0.39-0.1-0.62s0.05-0.56,0.16-0.95
					c0.11-0.4,0.25-0.85,0.42-1.36l0.56-1.66c0.79-2.31,1.25-4.09,1.38-5.35c0.04-0.37,0.22-0.56,0.55-0.56
					c0.2,0,0.37,0.05,0.5,0.15c0.26,0.2,0.38,0.41,0.37,0.65c-0.01,0.24-0.05,0.53-0.13,0.88s-0.17,0.72-0.29,1.12
					c-0.12,0.41-0.26,0.83-0.41,1.29l-0.92,2.7c-0.53,1.53-0.79,2.52-0.79,2.97c0,0.24,0.1,0.36,0.29,0.36
					c0.19,0,0.36-0.04,0.51-0.12c0.15-0.08,0.25-0.12,0.3-0.12c0.09,0,0.14,0.05,0.14,0.14c0,0.39-0.2,0.73-0.61,0.99
					c-0.27,0.18-0.52,0.27-0.74,0.27s-0.4-0.03-0.54-0.08C82.54,91.4,82.41,91.32,82.3,91.2z"/>
				<path class="st6" d="M88.01,90.23c0.12,0,0.17,0.08,0.17,0.23c0,0.2-0.09,0.41-0.27,0.62c-0.27,0.31-0.62,0.47-1.07,0.47
					c-0.51,0-0.87-0.21-1.06-0.62c-0.07-0.15-0.11-0.32-0.11-0.53c0-0.21,0.04-0.44,0.11-0.69s0.16-0.52,0.27-0.8
					s0.23-0.57,0.36-0.85l0.35-0.84c0.26-0.62,0.39-1.04,0.39-1.24c0-0.2-0.02-0.33-0.06-0.4c-0.04-0.06-0.09-0.11-0.14-0.15
					l-0.13-0.09c-0.04-0.03-0.07-0.08-0.07-0.16c0-0.08,0.03-0.15,0.09-0.22c0.06-0.07,0.14-0.13,0.24-0.19
					c0.2-0.1,0.43-0.15,0.7-0.15c0.65,0,0.98,0.17,0.98,0.51c0,0.4-0.1,0.85-0.31,1.37c-0.21,0.51-0.39,0.93-0.53,1.24l-0.4,0.92
					c-0.29,0.67-0.44,1.16-0.44,1.46c0,0.2,0.1,0.29,0.29,0.29c0.19,0,0.33-0.02,0.43-0.07S87.96,90.23,88.01,90.23z M89.37,83.03
					c-0.1,0.1-0.21,0.19-0.33,0.25c-0.12,0.06-0.26,0.1-0.39,0.12c-0.14,0.02-0.27-0.01-0.39-0.06c-0.12-0.06-0.23-0.14-0.32-0.25
					c-0.19-0.22-0.29-0.45-0.29-0.67c0-0.23,0.04-0.4,0.11-0.51c0.07-0.11,0.17-0.2,0.28-0.28c0.21-0.14,0.41-0.21,0.6-0.21
					s0.33,0.01,0.44,0.04c0.1,0.03,0.2,0.07,0.29,0.13c0.22,0.15,0.33,0.32,0.33,0.54s-0.03,0.39-0.09,0.53
					C89.55,82.8,89.47,82.92,89.37,83.03z"/>
				<path class="st6" d="M90.3,91.02c-0.19-0.18-0.33-0.4-0.44-0.67s-0.16-0.59-0.17-0.97c0-0.37,0.04-0.75,0.14-1.13
					c0.1-0.38,0.23-0.75,0.41-1.1c0.17-0.36,0.39-0.69,0.63-1c0.25-0.31,0.52-0.58,0.81-0.81c0.65-0.5,1.32-0.75,2.01-0.75
					c0.91,0,1.53,0.4,1.85,1.2c0.23,0.58,0.24,1.28,0.04,2.11c-0.19,0.76-0.53,1.45-1.02,2.09c-0.49,0.63-1.07,1.08-1.74,1.35
					c-0.34,0.13-0.67,0.2-0.99,0.2c-0.33,0-0.62-0.04-0.87-0.13S90.48,91.2,90.3,91.02z M91.57,87.79
					c-0.13,0.33-0.24,0.67-0.32,1.01c-0.08,0.35-0.11,0.67-0.11,0.98c0,0.31,0.05,0.55,0.14,0.72c0.09,0.18,0.24,0.26,0.44,0.26
					s0.4-0.07,0.6-0.21c0.2-0.14,0.39-0.33,0.57-0.56c0.19-0.23,0.36-0.5,0.53-0.8s0.31-0.62,0.43-0.94c0.27-0.71,0.4-1.35,0.39-1.9
					c0-0.49-0.1-0.8-0.3-0.93c-0.08-0.05-0.19-0.08-0.34-0.08c-0.14,0-0.31,0.07-0.5,0.2c-0.19,0.13-0.37,0.31-0.56,0.53
					c-0.19,0.22-0.37,0.48-0.54,0.78S91.7,87.46,91.57,87.79z"/>
			</g>
		</g>
	</g>
</g>
<g>
</g>
<g>
</g>
<g>
</g>
<g>
</g>
<g>
</g>
<g>
</g>
</svg>
